G04 Layer_Physical_Order=2*
G04 Layer_Color=16711680*
%FSLAX25Y25*%
%MOIN*%
G70*
G01*
G75*
%ADD29C,0.01969*%
%ADD30C,0.01181*%
%ADD31C,0.15748*%
%ADD32C,0.07087*%
%ADD33C,0.07874*%
%ADD34C,0.17716*%
%ADD35C,0.05906*%
%ADD36C,0.01969*%
D29*
X211988Y53512D02*
X237827D01*
X218488Y157012D02*
X238327D01*
X164500Y148500D02*
X165752Y147248D01*
X164500Y146457D02*
X164961D01*
X164173Y146500D02*
Y156673D01*
X146063Y146457D02*
X164500D01*
X56000Y160000D02*
X61500Y165500D01*
X148500Y13000D02*
X157750Y22250D01*
X104748Y72000D02*
X118248Y85500D01*
X161000Y89000D02*
X170000D01*
X121000Y129000D02*
X161000Y89000D01*
X121000Y129000D02*
Y143500D01*
X111000Y122500D02*
X115748Y117752D01*
Y108268D02*
Y117752D01*
X108480Y101000D02*
X115748Y108268D01*
X53000Y101000D02*
X108480D01*
X129921Y113386D02*
X164000Y79307D01*
X125197Y113386D02*
X129921D01*
X210988Y127012D02*
X238327D01*
X210488Y137012D02*
X238327D01*
X114000Y170000D02*
X151000Y133000D01*
X164173Y156673D02*
X166000Y158500D01*
X164500Y146457D02*
Y146500D01*
Y138000D02*
Y146457D01*
X164961D02*
X165752Y147248D01*
X117520Y175000D02*
X146063Y146457D01*
X97000Y175000D02*
X117520D01*
X172118Y133000D02*
X183185Y121933D01*
X164000Y77500D02*
Y79307D01*
X295276Y90551D02*
X303150D01*
X147638Y181102D02*
Y188976D01*
X-7874Y90551D02*
X0D01*
Y74803D02*
Y181102D01*
X295276D01*
Y0D02*
Y181102D01*
X0Y0D02*
X295276D01*
X0D02*
Y23622D01*
X147638Y-7874D02*
Y0D01*
X62500Y119000D02*
X73500D01*
X62500Y149000D02*
X79500D01*
X72500Y139000D02*
X79000D01*
X62500D02*
X72500D01*
X248327Y157012D02*
Y162673D01*
X219000Y147012D02*
X238327D01*
X219012Y117012D02*
X238327D01*
X238815Y107500D02*
X248327Y117012D01*
Y99327D02*
Y117012D01*
X39370Y157370D02*
Y161417D01*
X38500Y156500D02*
X39370Y157370D01*
X43500Y149000D02*
X62500D01*
X216500Y113500D02*
Y114500D01*
X219012Y117012D01*
X216000Y90000D02*
X227500D01*
X191500D02*
X216000D01*
X227500D02*
X237827Y79673D01*
Y63512D02*
Y79673D01*
X251500Y68500D02*
Y94000D01*
X247827Y64827D02*
X251500Y68500D01*
X247827Y63512D02*
Y64827D01*
X242815Y58500D02*
X247827Y63512D01*
X220988D02*
X226000Y58500D01*
X198827Y63512D02*
X220988D01*
X188827Y87327D02*
X191500Y90000D01*
X188827Y63512D02*
Y87327D01*
X156000Y37500D02*
Y42500D01*
X48500Y109000D02*
X62500D01*
X151500Y107500D02*
X154000D01*
X164500Y118000D01*
Y97000D02*
Y108000D01*
X169500Y152500D02*
X174988Y147012D01*
X189327D01*
X259500Y102000D02*
Y145839D01*
X251500Y94000D02*
X259500Y102000D01*
X259000Y90500D02*
X263000Y86500D01*
X239500Y90500D02*
X248327Y99327D01*
X263000Y38685D02*
Y86500D01*
X247827Y23512D02*
X263000Y38685D01*
X48500Y119000D02*
X62500D01*
X73500D02*
X75000Y117500D01*
X48500Y139000D02*
X62500D01*
X38500Y144000D02*
X43500Y149000D01*
X48500Y129000D02*
X62500D01*
X61500Y165500D02*
X73000D01*
X102500Y136000D01*
X151500Y117000D02*
X153500D01*
X164500Y128000D01*
X206500Y28500D02*
X211488Y23512D01*
X237827D01*
X219000Y33512D02*
X237827D01*
X207488D02*
X219000D01*
Y43512D02*
X237827D01*
X209488D02*
X219000D01*
X214488Y147012D02*
X219000D01*
X248327Y157012D02*
X259500Y145839D01*
X208000Y107500D02*
X238815D01*
X199327Y116173D02*
X208000Y107500D01*
X199327Y116173D02*
Y117012D01*
X239315Y15000D02*
X247827Y23512D01*
X205000Y15000D02*
X239315D01*
X198827Y21173D02*
X205000Y15000D01*
X198827Y21173D02*
Y23512D01*
X188827Y33512D02*
X193748Y38433D01*
X202567D02*
X207488Y33512D01*
X188827Y43512D02*
X193905Y48591D01*
X204409D02*
X209488Y43512D01*
X188827Y53512D02*
X193815Y58500D01*
X207000D02*
X211988Y53512D01*
X199327Y157012D02*
X208315Y166000D01*
X245000D01*
X248327Y162673D01*
X189327Y127012D02*
X194315Y132000D01*
X206000D02*
X210988Y127012D01*
X189327Y137012D02*
X194315Y142000D01*
X205500D02*
X210488Y137012D01*
X189327Y147012D02*
X194315Y152000D01*
X209500D02*
X214488Y147012D01*
X102000Y170000D02*
X114000D01*
X164500Y146500D02*
Y148500D01*
X79000Y139000D02*
X83000Y135000D01*
Y130000D02*
Y135000D01*
X84500Y141500D02*
Y144000D01*
X79500Y149000D02*
X84500Y144000D01*
X82000Y170000D02*
X100500Y151500D01*
X100500Y151500D01*
X45000Y25000D02*
Y67260D01*
X45370Y67630D01*
X64500Y59500D02*
X65185D01*
X62500Y129000D02*
X74000D01*
X83870Y119130D01*
X102500D01*
X56500Y72000D02*
X104748D01*
X50016Y65516D02*
X56500Y72000D01*
X50016Y55984D02*
Y65516D01*
Y55984D02*
X53500Y52500D01*
X64000D01*
X94000Y22500D01*
X116000D01*
X125500Y13000D01*
X148500D01*
X129000Y32000D02*
X130000Y31000D01*
X118000Y85500D02*
X118248D01*
X47500Y92500D02*
X100500D01*
X182500Y110185D02*
X189327Y117012D01*
X140500Y78000D02*
X147000Y71500D01*
X166500D01*
X176500Y81500D01*
Y116000D01*
X164500Y128000D02*
X176500Y116000D01*
X67685Y57000D02*
X165500D01*
X65185Y59500D02*
X67685Y57000D01*
X164488Y23512D02*
X188827D01*
X130000Y31000D02*
X161000D01*
X163500Y28500D01*
X179105Y31000D02*
X181617Y33512D01*
X188827D01*
X165500Y31000D02*
X179105D01*
X161500Y39500D02*
X163000Y41000D01*
X170500Y36000D02*
X177500D01*
X185012Y43512D01*
X188827D01*
X163000Y41000D02*
X177500D01*
X182500Y46000D01*
Y110185D01*
X156000Y42500D02*
X160500Y47000D01*
X176500Y60000D02*
Y81500D01*
X68000Y33000D02*
X93500Y7500D01*
X159500D01*
X169500Y17500D01*
X47000Y12000D02*
X68000Y33000D01*
X39000Y12000D02*
X47000D01*
X35500Y15500D02*
X39000Y12000D01*
X41500Y104000D02*
X46500Y109000D01*
X33000Y104000D02*
X41500D01*
X27000Y110000D02*
X33000Y104000D01*
X27000Y110000D02*
Y154000D01*
X32500Y159500D01*
Y172000D01*
X119000Y151500D02*
X120000D01*
X111000Y143500D02*
X119000Y151500D01*
X111000Y122500D02*
Y143500D01*
X100500Y151500D02*
X119000D01*
X102500Y119130D02*
X109500Y112130D01*
Y110500D02*
Y112130D01*
X102500Y119130D02*
Y136000D01*
X38500Y144000D02*
Y156500D01*
X156000Y37500D02*
X159000Y34500D01*
X162000D01*
X165500Y31000D01*
X160500Y47000D02*
X170000D01*
X122000Y29500D02*
X125500Y26000D01*
X149500D01*
X151000Y27500D01*
X160500D01*
X164488Y23512D01*
X155000Y51500D02*
X168000D01*
X176500Y60000D01*
X187839Y158500D02*
X189327Y157012D01*
X166000Y158500D02*
X187839D01*
X32500Y172000D02*
X38500Y178000D01*
X196315D01*
X208315Y166000D01*
X92000Y170000D02*
X97000Y175000D01*
X60000Y66000D02*
X169000D01*
X57500Y63500D02*
X60000Y66000D01*
X57500Y63000D02*
Y63500D01*
X119500Y104000D02*
X131500D01*
X140500Y95000D01*
Y86000D02*
Y95000D01*
X106000Y98000D02*
X129000D01*
X100500Y92500D02*
X106000Y98000D01*
X108000Y39000D02*
X139000D01*
X142500D01*
X97000Y28000D02*
X108000Y39000D01*
X142500D02*
X155000Y51500D01*
X127500Y92500D02*
X130000Y90000D01*
X47000Y81500D02*
X101000D01*
X112000Y92500D01*
X127500D01*
D30*
X194602Y121933D02*
X199524Y117012D01*
X199327D02*
X199524D01*
X197244D02*
X199327D01*
X183185Y121933D02*
X194602D01*
X151000Y133000D02*
X172118D01*
X226000Y58500D02*
X242815D01*
X193748Y38433D02*
X202567D01*
X193905Y48591D02*
X204409D01*
X193815Y58500D02*
X207000D01*
X194315Y132000D02*
X206000D01*
X194315Y142000D02*
X205500D01*
X194315Y152000D02*
X209500D01*
X163500Y28500D02*
X206500D01*
X269687Y112205D02*
X273623D01*
X275590Y110237D01*
X273623Y108269D01*
X269687D01*
X275590Y103349D02*
Y105317D01*
X274607Y106301D01*
X272639D01*
X271655Y105317D01*
Y103349D01*
X272639Y102365D01*
X273623D01*
Y106301D01*
X271655Y100398D02*
X275590D01*
X273623D01*
X272639Y99414D01*
X271655Y98430D01*
Y97446D01*
X275590Y88590D02*
Y86623D01*
Y87606D01*
X269687D01*
X270671Y88590D01*
X275590Y83671D02*
X274607D01*
Y82687D01*
X275590D01*
Y83671D01*
X270671Y78751D02*
X269687Y77767D01*
Y75799D01*
X270671Y74815D01*
X274607D01*
X275590Y75799D01*
Y77767D01*
X274607Y78751D01*
X270671D01*
X287402Y91542D02*
Y95478D01*
X283466Y91542D01*
X282482D01*
X281498Y92526D01*
Y94494D01*
X282482Y95478D01*
Y89574D02*
X281498Y88590D01*
Y86623D01*
X282482Y85638D01*
X286418D01*
X287402Y86623D01*
Y88590D01*
X286418Y89574D01*
X282482D01*
X287402Y83671D02*
Y81703D01*
Y82687D01*
X281498D01*
X282482Y83671D01*
X281498Y78751D02*
Y74815D01*
X282482D01*
X286418Y78751D01*
X287402D01*
D31*
X275590Y169291D02*
D03*
Y11811D02*
D03*
X19685D02*
D03*
Y169291D02*
D03*
D32*
X198827Y23512D02*
D03*
X188827D02*
D03*
X198827Y33512D02*
D03*
X188827D02*
D03*
X198827Y43512D02*
D03*
X188827D02*
D03*
X198827Y53512D02*
D03*
X188827D02*
D03*
X198827Y63512D02*
D03*
X188827D02*
D03*
X199327Y117012D02*
D03*
X189327D02*
D03*
X199327Y127012D02*
D03*
X189327D02*
D03*
X199327Y137012D02*
D03*
X189327D02*
D03*
X199327Y147012D02*
D03*
X189327D02*
D03*
X199327Y157012D02*
D03*
X189327D02*
D03*
X247827Y23512D02*
D03*
X237827D02*
D03*
X247827Y33512D02*
D03*
X237827D02*
D03*
X247827Y43512D02*
D03*
X237827D02*
D03*
X247827Y53512D02*
D03*
X237827D02*
D03*
X247827Y63512D02*
D03*
X237827D02*
D03*
X248327Y117012D02*
D03*
X238327D02*
D03*
X248327Y127012D02*
D03*
X238327D02*
D03*
X248327Y137012D02*
D03*
X238327D02*
D03*
X248327Y147012D02*
D03*
X238327D02*
D03*
X248327Y157012D02*
D03*
X238327D02*
D03*
X62500Y149000D02*
D03*
Y139000D02*
D03*
Y129000D02*
D03*
Y119000D02*
D03*
Y109000D02*
D03*
X164500Y108000D02*
D03*
Y118000D02*
D03*
Y128000D02*
D03*
Y138000D02*
D03*
D33*
X36500Y144000D02*
D03*
X46500Y139000D02*
D03*
X36500Y134000D02*
D03*
X46500Y129000D02*
D03*
X36500Y124000D02*
D03*
X46500Y119000D02*
D03*
X36500Y114000D02*
D03*
X46500Y109000D02*
D03*
D34*
X11500Y149000D02*
D03*
Y104000D02*
D03*
D35*
X82000Y170000D02*
D03*
X92000D02*
D03*
X102000D02*
D03*
X125197Y113386D02*
D03*
X39370Y161417D02*
D03*
X216500Y113500D02*
D03*
X216000Y90000D02*
D03*
X169000Y66000D02*
D03*
X161500Y39500D02*
D03*
X164500Y97000D02*
D03*
X151500Y107500D02*
D03*
X169500Y152500D02*
D03*
X219000Y157500D02*
D03*
X259000Y90500D02*
D03*
X239500D02*
D03*
X75000Y117500D02*
D03*
X56000Y161417D02*
D03*
X151500Y117000D02*
D03*
X72500Y139000D02*
D03*
X129000Y32000D02*
D03*
X122000Y29500D02*
D03*
X219000Y33512D02*
D03*
Y43512D02*
D03*
Y53500D02*
D03*
Y127000D02*
D03*
Y137000D02*
D03*
Y147012D02*
D03*
X164500Y146500D02*
D03*
X83000Y130000D02*
D03*
X84500Y141500D02*
D03*
X121000Y143500D02*
D03*
X120000Y151500D02*
D03*
X45370Y67630D02*
D03*
X45000Y25000D02*
D03*
X47000Y81500D02*
D03*
X47500Y92500D02*
D03*
X64500Y59500D02*
D03*
X53000Y101000D02*
D03*
X120500Y163000D02*
D03*
X68000Y33000D02*
D03*
X119500Y104000D02*
D03*
X157500Y22500D02*
D03*
X130000Y90000D02*
D03*
X140500Y86000D02*
D03*
X118000Y85500D02*
D03*
X97000Y28000D02*
D03*
X140500Y78000D02*
D03*
X170000Y89000D02*
D03*
X164000Y77500D02*
D03*
X165500Y57000D02*
D03*
X170500Y36000D02*
D03*
X169500Y17500D02*
D03*
X35500Y15500D02*
D03*
X109500Y110500D02*
D03*
X57500Y63000D02*
D03*
X171000Y47000D02*
D03*
X129000Y98000D02*
D03*
X139000Y39000D02*
D03*
D36*
X58378Y39260D02*
D03*
X54047D02*
D03*
X49716D02*
D03*
X58378Y43591D02*
D03*
X49716D02*
D03*
X58378Y47921D02*
D03*
X49716D02*
D03*
X54047Y43591D02*
D03*
Y47921D02*
D03*
M02*
