M48
;Layer_Color=9474304
;FILE_FORMAT=2:5
INCH,LZ
;TYPE=PLATED
T1F00S00C0.00787
T2F00S00C0.01968
T3F00S00C0.02362
T4F00S00C0.03543
T5F00S00C0.03780
T6F00S00C0.11811
T7F00S00C0.12638
;TYPE=NON_PLATED
T8F00S00C0.03937
%
T01
X0049716Y003926
X0054047
X0058378
Y0043591
Y0047921
X0054047
X0049716
Y0043591
X0054047
T02
X00355Y00155
X0045Y0025
X0068Y0033
X00645Y00595
X0097Y0028
X0122Y00295
X0129Y0032
X0139Y0039
X01615Y00395
X01705Y0036
X0171Y0047
X01655Y0057
X01575Y00225
X01695Y00175
X0219Y0033512
Y0043512
Y00535
X0216Y009
X02165Y01135
X0219Y0127
Y0137
Y0147012
Y01575
X02395Y00905
X0259
X017Y0089
X01645Y0097
X0164Y00775
X0169Y0066
X01405Y0078
Y0086
X013Y009
X0129Y0098
X01195Y0104
X0125197Y0113386
X01095Y01105
X0118Y00855
X01515Y01075
Y0117
X01645Y01465
X01695Y01525
X012Y01515
X0121Y01435
X01205Y0163
X00845Y01415
X0083Y013
X00725Y0139
X00625
Y0149
X0056Y0161417
X00625Y0129
Y0119
Y0109
X0053Y0101
X00475Y00925
X0047Y00815
X004537Y006763
X00575Y0063
X0075Y01175
X003937Y0161417
T03
X0082Y017
X0092
X0102
T04
X00465Y0109
Y0119
Y0129
X00465Y0139
X00365Y0144
Y0134
Y0124
Y0114
T05
X0188827Y0023512
Y0033512
Y0043512
Y0053512
X0198827
Y0043512
Y0033512
Y0023512
X0237827
X0247827
Y0033512
X0237827
Y0043512
X0247827
Y0053512
X0237827
Y0063512
X0247827
X0198827
X0199327Y0117012
Y0127012
Y0137012
Y0147012
Y0157012
X0238327
Y0147012
Y0137012
Y0127012
Y0117012
X0248327
Y0127012
Y0137012
Y0147012
Y0157012
X0189327
Y0147012
Y0137012
Y0127012
Y0117012
X01645Y0118
Y0108
Y0128
Y0138
X0188827Y0063512
T06
X0019685Y0011811
X027559
Y0169291
X0019685
T07
X00115Y0104
Y0149
T08
X0018Y0040362
Y0057685
M30
