G04 Layer_Physical_Order=1*
G04 Layer_Color=255*
%FSLAX25Y25*%
%MOIN*%
G70*
G01*
G75*
%ADD10R,0.05000X0.05000*%
%ADD11R,0.07480X0.05118*%
%ADD12R,0.05512X0.08661*%
%ADD13R,0.09843X0.07874*%
%ADD14R,0.08858X0.01969*%
%ADD15R,0.03740X0.08268*%
%ADD16R,0.21654X0.25590*%
%ADD17O,0.01181X0.07087*%
%ADD18O,0.07087X0.01181*%
%ADD19R,0.12323X0.12323*%
%ADD20O,0.00787X0.03347*%
%ADD21O,0.03347X0.00787*%
%ADD22O,0.01969X0.00787*%
%ADD23O,0.00787X0.01969*%
%ADD24R,0.11811X0.06693*%
%ADD25R,0.05000X0.05000*%
%ADD26R,0.03543X0.03740*%
%ADD27R,0.03543X0.03740*%
%ADD28O,0.08661X0.02362*%
%ADD29C,0.01969*%
%ADD30C,0.01181*%
%ADD31C,0.15748*%
%ADD32C,0.07087*%
%ADD33C,0.07874*%
%ADD34C,0.17716*%
%ADD35C,0.05906*%
%ADD36C,0.01969*%
G36*
X277724Y45414D02*
X277686D01*
X277686Y45452D01*
X277724D01*
Y45414D01*
D02*
G37*
G36*
X270040Y51024D02*
X270078D01*
Y50985D01*
X270194D01*
Y50947D01*
X270232Y50947D01*
Y50908D01*
X270270D01*
Y50870D01*
X270309Y50870D01*
Y50832D01*
X270347D01*
Y50793D01*
X270386D01*
Y50755D01*
X270424Y50755D01*
Y50639D01*
X270462D01*
Y50601D01*
X270501Y50601D01*
Y45491D01*
X270539D01*
Y45529D01*
X270578D01*
Y45491D01*
X270616D01*
Y45529D01*
X270655Y45529D01*
Y45491D01*
X270693D01*
Y45529D01*
X270731D01*
X270731Y45491D01*
X270770D01*
Y45529D01*
X270808Y45529D01*
Y45491D01*
X271000D01*
Y45452D01*
X271193D01*
X271193Y45414D01*
X271231D01*
Y45452D01*
X271269D01*
Y45414D01*
X271308D01*
Y45452D01*
X271346D01*
Y45414D01*
X271385D01*
Y45452D01*
X271423D01*
Y45414D01*
X271538D01*
X271538Y45376D01*
X271577D01*
X271577Y45414D01*
X271615D01*
Y45376D01*
X271654Y45376D01*
X271692Y45376D01*
X271807D01*
Y45337D01*
X271846D01*
Y45376D01*
X271884Y45376D01*
Y45337D01*
X271922D01*
Y45376D01*
X271961D01*
Y45337D01*
X272076D01*
X272076Y45299D01*
X272115D01*
X272153Y45299D01*
X272192Y45299D01*
Y45260D01*
X272230D01*
X272230Y45299D01*
X272268D01*
X272268Y45260D01*
X272307D01*
Y45299D01*
X272345D01*
Y45260D01*
X272460D01*
Y45222D01*
X272499D01*
Y45260D01*
X272460D01*
X272460Y45299D01*
X272499D01*
Y45337D01*
X272537D01*
Y45376D01*
X272499D01*
Y45414D01*
X272537D01*
Y45606D01*
X272576D01*
X272576Y45721D01*
X272614D01*
Y45990D01*
X272653D01*
Y46106D01*
X272691D01*
Y46298D01*
X272729D01*
Y46413D01*
X272768D01*
Y46451D01*
X272729D01*
X272729Y46490D01*
X272768D01*
Y46605D01*
X272806D01*
Y46643D01*
X272768D01*
X272768Y46682D01*
X272806D01*
Y46797D01*
X272845D01*
Y46836D01*
X272806D01*
Y46874D01*
X272845D01*
Y46989D01*
X272883D01*
Y47028D01*
X272845D01*
Y47066D01*
X272883D01*
Y47105D01*
X272921D01*
Y47143D01*
X272883D01*
Y47181D01*
X272921D01*
X272921Y47374D01*
X272960D01*
Y47412D01*
X272921D01*
Y47450D01*
X272960D01*
Y47489D01*
X272998D01*
Y47527D01*
X272960D01*
Y47566D01*
X272998Y47566D01*
Y47758D01*
X273037Y47758D01*
Y47873D01*
X273075D01*
Y48065D01*
X273114D01*
Y48104D01*
X273075D01*
Y48142D01*
X273114D01*
Y48257D01*
X273152D01*
Y48449D01*
X273190D01*
Y48565D01*
X273229D01*
Y48603D01*
X273190D01*
Y48641D01*
X273229D01*
Y48757D01*
X273267D01*
X273267Y48795D01*
X273229D01*
Y48834D01*
X273267D01*
X273267Y48872D01*
X273306D01*
Y48910D01*
X273267Y48910D01*
X273267Y48949D01*
X273306D01*
Y48987D01*
X273267D01*
Y49026D01*
X273306D01*
Y49141D01*
X273344D01*
X273344Y49179D01*
X273306D01*
Y49218D01*
X273344Y49218D01*
Y49256D01*
X273383Y49256D01*
Y49295D01*
X273344D01*
Y49333D01*
X273383D01*
Y49525D01*
X273421D01*
X273421Y49564D01*
X273383D01*
Y49602D01*
X273421D01*
Y49641D01*
X273459D01*
Y49679D01*
X273421D01*
Y49717D01*
X273459D01*
Y49833D01*
X273498D01*
X273498Y49871D01*
X273459D01*
Y49909D01*
X273498D01*
Y49948D01*
X273536D01*
Y49986D01*
X273498D01*
Y50025D01*
X273536D01*
Y50140D01*
X273575D01*
Y50178D01*
X273613D01*
Y50217D01*
X273652Y50217D01*
Y50255D01*
X273690D01*
Y50294D01*
X273728D01*
Y50332D01*
X273767D01*
Y50371D01*
X273844D01*
Y50409D01*
X273920D01*
Y50447D01*
X273959D01*
Y50409D01*
X273997D01*
Y50447D01*
X274036Y50447D01*
X274074Y50447D01*
X274113Y50447D01*
Y50486D01*
X274151D01*
Y50447D01*
X274189D01*
Y50486D01*
X274228D01*
Y50447D01*
X274305D01*
X274343Y50447D01*
Y50409D01*
X274382D01*
Y50447D01*
X274420D01*
X274420Y50409D01*
X274458D01*
Y50371D01*
X274535D01*
Y50332D01*
X274574D01*
Y50294D01*
X274651D01*
Y50217D01*
X274689Y50217D01*
Y50178D01*
X274727D01*
Y50102D01*
X274766D01*
X274766Y50063D01*
X274804D01*
Y50025D01*
X274766D01*
Y49986D01*
X274804D01*
Y49794D01*
X274843D01*
Y49756D01*
X274804Y49756D01*
Y49564D01*
X274766D01*
X274766Y49525D01*
X274804D01*
Y49487D01*
X274766D01*
Y49448D01*
X274727D01*
Y49410D01*
X274766D01*
Y49371D01*
X274727D01*
Y49179D01*
X274689D01*
X274689Y49064D01*
X274651D01*
Y49026D01*
X274689D01*
Y48987D01*
X274651D01*
Y48795D01*
X274612D01*
Y48680D01*
X274574D01*
Y48641D01*
X274612D01*
X274612Y48603D01*
X274574D01*
Y48488D01*
X274535D01*
Y48449D01*
X274574D01*
Y48411D01*
X274535Y48411D01*
Y48296D01*
X274497Y48296D01*
Y48104D01*
X274458D01*
Y48065D01*
X274497D01*
Y48027D01*
X274458D01*
Y47988D01*
X274420D01*
X274420Y47950D01*
X274458D01*
Y47912D01*
X274420D01*
Y47796D01*
X274382D01*
Y47758D01*
X274420Y47758D01*
Y47719D01*
X274382Y47719D01*
Y47681D01*
X274343Y47681D01*
Y47642D01*
X274382D01*
X274381Y47604D01*
X274343D01*
Y47412D01*
X274305D01*
Y47374D01*
X274343Y47374D01*
Y47335D01*
X274305D01*
Y47297D01*
X274266D01*
X274266Y47258D01*
X274305D01*
Y47220D01*
X274266D01*
X274266Y47028D01*
X274228D01*
Y46913D01*
X274189D01*
Y46874D01*
X274228D01*
Y46836D01*
X274189D01*
Y46643D01*
X274151D01*
Y46528D01*
X274113D01*
X274113Y46336D01*
X274074D01*
Y46298D01*
X274113D01*
Y46259D01*
X274074D01*
X274074Y46221D01*
X274036Y46221D01*
Y46182D01*
X274074D01*
X274074Y46144D01*
X274036D01*
X274036Y45952D01*
X273997D01*
Y45913D01*
X274036Y45913D01*
Y45875D01*
X273997D01*
Y45837D01*
X273959D01*
Y45645D01*
X273920D01*
Y45606D01*
X273959D01*
Y45568D01*
X273920D01*
Y45529D01*
X273882D01*
Y45491D01*
X273920D01*
Y45452D01*
X273882D01*
Y45260D01*
X273844D01*
Y45222D01*
X273882D01*
Y45183D01*
X273844D01*
Y45145D01*
X273805D01*
X273805Y45107D01*
X273844D01*
Y45068D01*
X273805Y45068D01*
Y44876D01*
X273844Y44876D01*
X273920D01*
Y44838D01*
X273959Y44838D01*
Y44799D01*
X273997D01*
Y44838D01*
X274036D01*
X274036Y44799D01*
X274151D01*
Y44761D01*
X274266D01*
X274266Y44722D01*
X274343D01*
X274382Y44722D01*
Y44684D01*
X274420D01*
X274420Y44646D01*
X274458D01*
Y44684D01*
X274497D01*
Y44646D01*
X274612D01*
Y44607D01*
X274651D01*
X274651Y44569D01*
X274689D01*
Y44607D01*
X274727D01*
Y44569D01*
X274804D01*
Y44530D01*
X274843D01*
X274881Y44530D01*
Y44492D01*
X274920D01*
Y44530D01*
X274958Y44530D01*
X274958Y44492D01*
X274996D01*
Y44453D01*
X275112D01*
Y44415D01*
X275150D01*
Y44377D01*
X275265D01*
Y44338D01*
X275380D01*
Y44300D01*
X275419D01*
Y44261D01*
X275457D01*
X275457Y44300D01*
X275496D01*
Y44261D01*
X275573D01*
Y44223D01*
X275649D01*
Y44184D01*
X275688D01*
Y44223D01*
X275649D01*
Y44261D01*
X275688D01*
Y44300D01*
X275726D01*
Y44338D01*
X275688D01*
Y44377D01*
X275726D01*
X275726Y44415D01*
X275765D01*
Y44530D01*
X275803Y44530D01*
Y44569D01*
X275842D01*
Y44684D01*
X275880D01*
Y44722D01*
X275918D01*
Y44838D01*
X275957D01*
X275957Y44876D01*
X275995D01*
Y44914D01*
X275957D01*
Y44953D01*
X275995D01*
Y44991D01*
X276034D01*
Y45107D01*
X276072D01*
Y45145D01*
X276111D01*
X276111Y45183D01*
X276072D01*
Y45222D01*
X276111D01*
Y45260D01*
X276149D01*
Y45376D01*
X276187D01*
Y45414D01*
X276226D01*
Y45529D01*
X276264D01*
Y45568D01*
X276303D01*
Y45683D01*
X276341D01*
Y45721D01*
X276379D01*
Y45760D01*
X276341D01*
Y45798D01*
X276379D01*
Y45837D01*
X276418D01*
Y45875D01*
X276456D01*
X276456Y45913D01*
X276418D01*
Y45952D01*
X276456D01*
X276456Y45990D01*
X276495D01*
Y46029D01*
X276456Y46029D01*
Y46067D01*
X276495D01*
Y46106D01*
X276533D01*
Y46221D01*
X276572D01*
Y46259D01*
X276610Y46259D01*
Y46375D01*
X276648Y46374D01*
Y46413D01*
X276687D01*
Y46528D01*
X276725D01*
Y46567D01*
X276764D01*
X276764Y46605D01*
X276725D01*
Y46643D01*
X276764D01*
Y46682D01*
X276802Y46682D01*
Y46797D01*
X276841D01*
X276841Y46836D01*
X276879D01*
Y46874D01*
X276841D01*
Y46913D01*
X276879D01*
Y46951D01*
X276917D01*
X276917Y47066D01*
X276956D01*
X276956Y47105D01*
X276994D01*
Y47220D01*
X277033D01*
Y47258D01*
X277071D01*
Y47374D01*
X277110D01*
Y47412D01*
X277148Y47412D01*
Y47450D01*
X277110D01*
Y47489D01*
X277148D01*
X277148Y47527D01*
X277186D01*
X277186Y47566D01*
X277225Y47566D01*
Y47604D01*
X277186D01*
X277186Y47642D01*
X277225D01*
Y47681D01*
X277263Y47681D01*
Y47719D01*
X277225D01*
Y47758D01*
X277263D01*
Y47796D01*
X277302D01*
X277302Y47912D01*
X277340D01*
Y47950D01*
X277379D01*
Y48065D01*
X277417Y48065D01*
Y48104D01*
X277455D01*
Y48219D01*
X277494Y48219D01*
Y48257D01*
X277532D01*
Y48296D01*
X277494D01*
Y48334D01*
X277532D01*
Y48373D01*
X277571D01*
Y48488D01*
X277609D01*
Y48526D01*
X277647D01*
Y48565D01*
X277609Y48565D01*
Y48603D01*
X277647D01*
X277647Y48641D01*
X277686D01*
X277686Y48680D01*
X277724D01*
Y48718D01*
X277763D01*
Y48795D01*
X277840D01*
Y48834D01*
X277878D01*
Y48872D01*
X277916Y48872D01*
Y48910D01*
X277955Y48910D01*
X277993Y48910D01*
X278032Y48910D01*
Y48949D01*
X278147D01*
Y48987D01*
X278185D01*
Y48949D01*
X278224Y48949D01*
Y48987D01*
X278262D01*
Y48949D01*
X278301D01*
Y48987D01*
X278339D01*
Y48949D01*
X278378D01*
X278416Y48949D01*
X278454Y48949D01*
Y48910D01*
X278493Y48910D01*
X278531D01*
X278570Y48910D01*
Y48872D01*
X278646D01*
Y48834D01*
X278685D01*
Y48795D01*
X278723D01*
Y48718D01*
X278762Y48718D01*
X278800D01*
Y48641D01*
X278839D01*
X278839Y48603D01*
X278877Y48603D01*
Y48488D01*
X278915D01*
Y48449D01*
X278877D01*
Y48411D01*
X278915Y48411D01*
Y48373D01*
X278954D01*
Y48334D01*
X278915D01*
Y48373D01*
X278877D01*
Y48334D01*
X278915D01*
Y48219D01*
X278877D01*
Y48180D01*
X278915D01*
Y48142D01*
X278877D01*
Y48027D01*
X278839D01*
Y47912D01*
X278800D01*
X278800Y47796D01*
X278762D01*
Y47758D01*
X278723Y47758D01*
Y47642D01*
X278685D01*
Y47604D01*
X278646D01*
Y47489D01*
X278608D01*
Y47450D01*
X278570D01*
Y47335D01*
X278531D01*
Y47220D01*
X278493D01*
Y47181D01*
X278454D01*
Y47143D01*
X278493D01*
X278493Y47105D01*
X278454D01*
Y47143D01*
X278416D01*
Y47105D01*
X278454Y47105D01*
Y47066D01*
X278416D01*
Y47028D01*
X278378D01*
Y46989D01*
X278416Y46989D01*
Y46951D01*
X278378D01*
Y46913D01*
X278339D01*
Y46797D01*
X278301D01*
Y46759D01*
X278262Y46759D01*
X278262Y46643D01*
X278224D01*
Y46605D01*
X278185D01*
Y46567D01*
X278224Y46567D01*
Y46528D01*
X278185D01*
Y46490D01*
X278147D01*
Y46451D01*
X278109D01*
Y46336D01*
X278070D01*
Y46221D01*
X278032Y46221D01*
Y46106D01*
X277993D01*
Y46067D01*
X277955D01*
Y45952D01*
X277916Y45952D01*
Y45913D01*
X277878D01*
Y45798D01*
X277840D01*
Y45760D01*
X277801D01*
Y45645D01*
X277763D01*
Y45529D01*
X277724D01*
Y45491D01*
X277686D01*
X277686Y45452D01*
X277647D01*
Y45414D01*
X277686D01*
Y45376D01*
X277647D01*
X277647Y45337D01*
X277609D01*
Y45299D01*
X277647D01*
X277647Y45260D01*
X277609D01*
Y45222D01*
X277571D01*
Y45107D01*
X277532D01*
Y45068D01*
X277494D01*
Y44953D01*
X277455D01*
Y44914D01*
X277417D01*
Y44876D01*
X277455D01*
X277455Y44838D01*
X277417D01*
Y44799D01*
X277379D01*
Y44684D01*
X277340D01*
Y44646D01*
X277302D01*
Y44607D01*
X277340D01*
Y44569D01*
X277302D01*
Y44530D01*
X277263Y44530D01*
Y44415D01*
X277225D01*
Y44377D01*
X277186D01*
Y44261D01*
X277148D01*
Y44223D01*
X277110D01*
Y44108D01*
X277071D01*
Y44069D01*
X277033D01*
Y43954D01*
X276994D01*
Y43839D01*
X276956D01*
Y43723D01*
X276917D01*
Y43762D01*
X276879D01*
Y43723D01*
X276917D01*
X276917Y43685D01*
X276879Y43685D01*
Y43647D01*
X276841D01*
Y43608D01*
X276879D01*
Y43570D01*
X276917D01*
Y43531D01*
X276956Y43531D01*
Y43493D01*
X276994D01*
Y43531D01*
X277033D01*
Y43493D01*
X277071D01*
Y43454D01*
X277110D01*
Y43416D01*
X277186D01*
X277186Y43378D01*
X277263D01*
Y43339D01*
X277302D01*
Y43301D01*
X277340D01*
Y43262D01*
X277379D01*
Y43301D01*
X277417D01*
Y43262D01*
X277455D01*
Y43224D01*
X277494D01*
Y43185D01*
X277571D01*
Y43147D01*
X277647D01*
Y43109D01*
X277686D01*
X277686Y43070D01*
X277724D01*
Y43032D01*
X277801D01*
Y42993D01*
X277878D01*
Y42955D01*
X277916D01*
Y42917D01*
X277955D01*
X277955Y42878D01*
X278032D01*
Y42840D01*
X278070Y42840D01*
X278109D01*
Y42801D01*
X278147D01*
Y42763D01*
X278185D01*
Y42724D01*
X278262D01*
Y42648D01*
X278301D01*
Y42686D01*
X278339Y42686D01*
Y42648D01*
X278378D01*
Y42609D01*
X278416D01*
Y42571D01*
X278454Y42571D01*
X278493D01*
X278493Y42494D01*
X278531D01*
Y42532D01*
X278570D01*
Y42571D01*
X278608D01*
Y42686D01*
X278646D01*
X278646Y42724D01*
X278685D01*
Y42763D01*
X278723D01*
X278723Y42801D01*
X278762Y42801D01*
Y42840D01*
X278800Y42840D01*
X278800Y42878D01*
X278839D01*
X278839Y42955D01*
X278915D01*
Y43070D01*
X278954D01*
Y43109D01*
X278992D01*
Y43147D01*
X279031D01*
Y43185D01*
X279069Y43185D01*
Y43301D01*
X279107D01*
Y43339D01*
X279146D01*
X279146Y43378D01*
X279184D01*
X279184Y43416D01*
X279223D01*
Y43454D01*
X279261D01*
Y43493D01*
X279300D01*
Y43608D01*
X279338D01*
Y43647D01*
X279377Y43646D01*
Y43685D01*
X279415D01*
Y43723D01*
X279453D01*
Y43762D01*
X279492D01*
Y43800D01*
X279530D01*
Y43916D01*
X279569D01*
Y43954D01*
X279607D01*
X279607Y43992D01*
X279645D01*
Y44031D01*
X279684Y44031D01*
Y44108D01*
X279761D01*
Y44223D01*
X279799D01*
X279799Y44261D01*
X279837D01*
X279838Y44300D01*
X279876D01*
Y44338D01*
X279914Y44338D01*
Y44377D01*
X279953D01*
Y44415D01*
X279991D01*
Y44530D01*
X280030D01*
Y44569D01*
X280068D01*
Y44607D01*
X280106D01*
Y44646D01*
X280145D01*
Y44722D01*
X280222D01*
Y44838D01*
X280260D01*
Y44876D01*
X280299D01*
Y44914D01*
X280337D01*
Y44953D01*
X280376D01*
Y45068D01*
X280414Y45068D01*
Y45107D01*
X280452Y45107D01*
Y45145D01*
X280491D01*
Y45183D01*
X280529D01*
Y45222D01*
X280568Y45222D01*
Y45260D01*
X280606D01*
Y45376D01*
X280644Y45376D01*
Y45414D01*
X280683D01*
X280683Y45452D01*
X280721D01*
Y45491D01*
X280760D01*
Y45529D01*
X280798D01*
Y45568D01*
X280837D01*
Y45683D01*
X280875Y45683D01*
Y45721D01*
X280913D01*
Y45760D01*
X280952D01*
Y45798D01*
X280990D01*
Y45837D01*
X281029D01*
X281029Y45875D01*
X281067D01*
Y45990D01*
X281105D01*
Y46029D01*
X281144Y46029D01*
Y46067D01*
X281182D01*
Y46106D01*
X281221D01*
Y46144D01*
X281259D01*
X281259Y46182D01*
X281221D01*
Y46221D01*
X281259Y46221D01*
X281298Y46221D01*
Y46298D01*
X281336D01*
X281336Y46336D01*
X281375D01*
Y46375D01*
X281413D01*
Y46413D01*
X281451Y46413D01*
Y46451D01*
X281490D01*
Y46490D01*
X281528D01*
X281528Y46528D01*
X281567D01*
Y46567D01*
X281605Y46567D01*
X281643Y46567D01*
X281682D01*
Y46605D01*
X281797D01*
Y46643D01*
X281836Y46643D01*
X282066D01*
X282066Y46605D01*
X282181D01*
Y46567D01*
X282220Y46567D01*
Y46605D01*
X282258D01*
Y46567D01*
X282297D01*
Y46528D01*
X282335D01*
X282335Y46490D01*
X282373D01*
X282373Y46451D01*
X282412D01*
Y46413D01*
X282450D01*
Y46375D01*
X282489D01*
Y46336D01*
X282527D01*
Y46298D01*
X282566D01*
Y46259D01*
X282527D01*
X282527Y46221D01*
X282566D01*
Y46106D01*
X282604D01*
Y46067D01*
X282566D01*
Y46029D01*
X282604Y46029D01*
Y45913D01*
X282566Y45913D01*
Y45875D01*
X282604D01*
Y45837D01*
X282566Y45837D01*
Y45645D01*
X282527D01*
Y45606D01*
X282489D01*
Y45568D01*
X282450D01*
Y45529D01*
X282412D01*
Y45491D01*
X282373D01*
Y45414D01*
X282335D01*
Y45337D01*
X282297D01*
Y45299D01*
X282258Y45299D01*
Y45260D01*
X282220D01*
Y45222D01*
X282181D01*
Y45107D01*
X282143D01*
Y45145D01*
X282104D01*
Y45030D01*
X282066D01*
Y44991D01*
X282028Y44991D01*
Y44953D01*
X281989D01*
Y44914D01*
X281951D01*
Y44838D01*
X281912Y44838D01*
Y44799D01*
X281874D01*
X281874Y44722D01*
X281836Y44722D01*
Y44684D01*
X281797Y44684D01*
Y44646D01*
X281759D01*
Y44607D01*
X281720D01*
Y44492D01*
X281682D01*
Y44530D01*
X281643D01*
Y44492D01*
X281682D01*
X281682Y44453D01*
X281643D01*
Y44415D01*
X281605Y44415D01*
Y44377D01*
X281567D01*
Y44338D01*
X281528Y44338D01*
Y44300D01*
X281490D01*
Y44184D01*
X281451D01*
Y44146D01*
X281413D01*
Y44108D01*
X281375D01*
Y44069D01*
X281336D01*
X281336Y44031D01*
X281298D01*
Y43992D01*
X281259D01*
Y43877D01*
X281221D01*
Y43839D01*
X281182Y43839D01*
Y43800D01*
X281144D01*
Y43762D01*
X281105D01*
Y43723D01*
X281067D01*
Y43685D01*
X281029D01*
Y43570D01*
X280990D01*
Y43531D01*
X280952Y43531D01*
Y43493D01*
X280913D01*
Y43454D01*
X280875D01*
X280875Y43378D01*
X280798D01*
Y43262D01*
X280760D01*
Y43224D01*
X280721Y43224D01*
Y43185D01*
X280683Y43185D01*
Y43147D01*
X280644D01*
X280644Y43070D01*
X280606D01*
Y43032D01*
X280568D01*
Y42955D01*
X280529D01*
X280529Y42917D01*
X280491D01*
X280491Y42878D01*
X280452D01*
Y42840D01*
X280414Y42840D01*
Y42724D01*
X280376D01*
Y42763D01*
X280337D01*
Y42724D01*
X280376D01*
Y42686D01*
X280337D01*
X280337Y42648D01*
X280299D01*
Y42609D01*
X280260D01*
Y42571D01*
X280222D01*
Y42532D01*
X280183D01*
Y42417D01*
X280106D01*
Y42340D01*
X280068Y42340D01*
Y42302D01*
X280030D01*
Y42263D01*
X279991D01*
Y42225D01*
X279953D01*
Y42110D01*
X279914D01*
Y42071D01*
X279876D01*
Y42033D01*
X279838D01*
Y41994D01*
X279799D01*
Y41956D01*
X279761Y41956D01*
Y41917D01*
X279722D01*
Y41802D01*
X279684D01*
Y41764D01*
X279645D01*
Y41725D01*
X279607D01*
Y41687D01*
X279569D01*
Y41649D01*
X279607D01*
Y41610D01*
X279645D01*
Y41572D01*
X279684D01*
X279684Y41533D01*
X279722D01*
Y41495D01*
X279761D01*
Y41456D01*
X279799Y41456D01*
Y41418D01*
X279838D01*
Y41456D01*
X279876D01*
Y41341D01*
X279914D01*
Y41380D01*
X279953D01*
Y41264D01*
X279991D01*
X279991Y41303D01*
X280030D01*
Y41226D01*
X280106D01*
Y41111D01*
X280145D01*
Y41149D01*
X280183D01*
X280183Y41072D01*
X280260D01*
Y40995D01*
X280337D01*
X280337Y40957D01*
X280376D01*
X280376Y40918D01*
X280414D01*
Y40842D01*
X280491D01*
Y40765D01*
X280568D01*
Y40650D01*
X280606D01*
Y40688D01*
X280644D01*
Y40573D01*
X280721D01*
Y40496D01*
X280760D01*
Y40534D01*
X280798D01*
Y40419D01*
X280837D01*
Y40381D01*
X280875D01*
Y40342D01*
X280913D01*
Y40304D01*
X280952D01*
Y40265D01*
X280990D01*
Y40304D01*
X281067D01*
Y40381D01*
X281105D01*
Y40342D01*
X281144D01*
Y40381D01*
X281182D01*
Y40419D01*
X281221D01*
Y40457D01*
X281259D01*
Y40496D01*
X281298Y40496D01*
Y40534D01*
X281336D01*
Y40573D01*
X281375D01*
Y40611D01*
X281413D01*
Y40650D01*
X281451D01*
Y40688D01*
X281490D01*
Y40726D01*
X281528D01*
Y40765D01*
X281605D01*
Y40803D01*
X281643Y40803D01*
X281682D01*
Y40880D01*
X281759D01*
Y40957D01*
X281797D01*
X281836Y40957D01*
Y40995D01*
X281874Y40995D01*
Y41034D01*
X281912D01*
Y41072D01*
X281951D01*
Y41111D01*
X281989D01*
Y41149D01*
X282028D01*
Y41188D01*
X282066D01*
Y41226D01*
X282104D01*
Y41264D01*
X282143D01*
Y41303D01*
X282181D01*
Y41341D01*
X282220D01*
Y41380D01*
X282297D01*
Y41456D01*
X282335D01*
Y41418D01*
X282373D01*
Y41456D01*
X282412D01*
Y41495D01*
X282450D01*
Y41533D01*
X282489D01*
Y41572D01*
X282527D01*
Y41610D01*
X282566D01*
Y41649D01*
X282604D01*
Y41687D01*
X282642D01*
X282642Y41725D01*
X282681D01*
Y41764D01*
X282719D01*
Y41802D01*
X282758D01*
Y41841D01*
X282835D01*
Y41917D01*
X282873D01*
Y41879D01*
X282911D01*
X282911Y41956D01*
X282950Y41956D01*
X282988Y41956D01*
Y42033D01*
X283065D01*
Y42071D01*
X283103D01*
Y42110D01*
X283142D01*
Y42148D01*
X283180D01*
Y42186D01*
X283219D01*
X283219Y42225D01*
X283257D01*
X283257Y42263D01*
X283296D01*
Y42302D01*
X283334Y42302D01*
Y42340D01*
X283372D01*
X283372Y42379D01*
X283411D01*
Y42417D01*
X283449D01*
Y42455D01*
X283526D01*
Y42532D01*
X283641D01*
Y42571D01*
X283680D01*
X283680Y42609D01*
X283718D01*
X283718Y42648D01*
X283757D01*
Y42686D01*
X283795D01*
Y42724D01*
X283834D01*
Y42763D01*
X283872D01*
X283872Y42801D01*
X283910D01*
Y42840D01*
X283949Y42840D01*
Y42878D01*
X283987Y42878D01*
Y42917D01*
X284026D01*
Y42955D01*
X284064D01*
Y42993D01*
X284141D01*
Y43070D01*
X284179D01*
Y43032D01*
X284218D01*
Y43109D01*
X284295D01*
Y43185D01*
X284333Y43185D01*
X284371Y43185D01*
Y43224D01*
X284410D01*
Y43262D01*
X284448D01*
Y43301D01*
X284487D01*
Y43339D01*
X284525D01*
Y43378D01*
X284563Y43378D01*
X284563Y43416D01*
X284602D01*
Y43454D01*
X284679D01*
Y43493D01*
X284756D01*
Y43531D01*
X284794Y43531D01*
X284833D01*
Y43570D01*
X284909D01*
Y43608D01*
X284948D01*
Y43570D01*
X284986D01*
Y43608D01*
X285025D01*
Y43570D01*
X285063D01*
Y43608D01*
X285102D01*
Y43570D01*
X285140D01*
Y43608D01*
X285178D01*
Y43570D01*
X285294D01*
Y43531D01*
X285332D01*
Y43493D01*
X285447D01*
Y43454D01*
X285486Y43454D01*
Y43416D01*
X285524Y43416D01*
Y43378D01*
X285562D01*
X285562Y43339D01*
X285601D01*
Y43301D01*
X285639D01*
Y43185D01*
X285678Y43185D01*
Y43147D01*
X285716D01*
Y43109D01*
X285678D01*
Y43070D01*
X285716D01*
X285716Y42724D01*
X285678D01*
Y42686D01*
X285639D01*
Y42648D01*
X285678D01*
Y42609D01*
X285639D01*
Y42571D01*
X285601Y42571D01*
Y42532D01*
X285562D01*
Y42494D01*
X285524D01*
Y42455D01*
X285486D01*
Y42417D01*
X285447D01*
Y42379D01*
X285409D01*
Y42340D01*
X285370Y42340D01*
Y42302D01*
X285332D01*
X285332Y42263D01*
X285294D01*
Y42225D01*
X285255D01*
Y42186D01*
X285217D01*
Y42148D01*
X285178D01*
Y42110D01*
X285140D01*
Y42071D01*
X285102D01*
Y42033D01*
X285063Y42033D01*
X285025D01*
Y41956D01*
X284948D01*
Y41879D01*
X284909D01*
Y41917D01*
X284871D01*
Y41841D01*
X284833Y41841D01*
X284794Y41841D01*
Y41802D01*
X284756D01*
Y41764D01*
X284717D01*
X284717Y41725D01*
X284679D01*
Y41687D01*
X284640D01*
Y41649D01*
X284602Y41649D01*
Y41610D01*
X284563D01*
X284563Y41572D01*
X284525D01*
Y41533D01*
X284487Y41533D01*
Y41495D01*
X284410D01*
Y41418D01*
X284333D01*
Y41380D01*
X284256D01*
Y41341D01*
X284218D01*
Y41303D01*
X284179Y41303D01*
Y41264D01*
X284141D01*
Y41226D01*
X284103D01*
Y41188D01*
X284064D01*
Y41149D01*
X284026Y41149D01*
Y41111D01*
X283987Y41111D01*
Y41072D01*
X283949D01*
Y41034D01*
X283910D01*
Y40995D01*
X283872D01*
X283872Y40957D01*
X283834D01*
Y40918D01*
X283795D01*
X283795Y40880D01*
X283718D01*
Y40803D01*
X283680Y40803D01*
Y40842D01*
X283641Y40842D01*
Y40765D01*
X283565D01*
Y40726D01*
X283526D01*
Y40688D01*
X283488Y40688D01*
Y40650D01*
X283449D01*
Y40611D01*
X283411Y40611D01*
Y40573D01*
X283372D01*
Y40534D01*
X283334D01*
Y40496D01*
X283296D01*
Y40457D01*
X283257Y40457D01*
Y40419D01*
X283219D01*
Y40381D01*
X283180D01*
X283180Y40342D01*
X283103D01*
Y40265D01*
X283027D01*
Y40227D01*
X282950D01*
Y40189D01*
X282911Y40189D01*
Y40150D01*
X282873D01*
X282873Y40112D01*
X282835D01*
Y40073D01*
X282796D01*
Y40035D01*
X282758D01*
Y39996D01*
X282719D01*
Y39958D01*
X282681D01*
Y39919D01*
X282642D01*
X282642Y39881D01*
X282604D01*
Y39843D01*
X282566D01*
Y39804D01*
X282527D01*
X282527Y39766D01*
X282489D01*
Y39727D01*
X282450D01*
Y39766D01*
X282412D01*
Y39689D01*
X282335D01*
Y39612D01*
X282258D01*
Y39574D01*
X282220D01*
X282220Y39535D01*
X282181D01*
Y39497D01*
X282143D01*
Y39459D01*
X282104D01*
Y39420D01*
X282066D01*
X282066Y39382D01*
X282028D01*
Y39343D01*
X281989D01*
Y39305D01*
X281951Y39305D01*
Y39266D01*
X281912Y39266D01*
X281874Y39266D01*
X281874Y39113D01*
X281912D01*
Y39074D01*
X281951D01*
Y39036D01*
X281989D01*
Y38997D01*
X282028Y38997D01*
Y38882D01*
X282066D01*
Y38844D01*
X282104D01*
Y38805D01*
X282143D01*
Y38767D01*
X282181D01*
Y38652D01*
X282220D01*
Y38613D01*
X282258Y38613D01*
Y38575D01*
X282297D01*
Y38536D01*
X282335D01*
X282335Y38421D01*
X282373Y38421D01*
X282373Y38383D01*
X282412D01*
Y38344D01*
X282450D01*
Y38306D01*
X282489D01*
Y38190D01*
X282527D01*
Y38152D01*
X282566D01*
Y38037D01*
X282604D01*
Y38075D01*
X282642Y38075D01*
Y37960D01*
X282681D01*
Y37922D01*
X282719D01*
Y37806D01*
X282758D01*
Y37768D01*
X282796D01*
Y37729D01*
X282835D01*
Y37691D01*
X282873D01*
X282873Y37653D01*
X282835D01*
Y37614D01*
X282873Y37614D01*
Y37576D01*
X282911D01*
X282911Y37537D01*
X282950D01*
Y37576D01*
X283065D01*
Y37614D01*
X283103D01*
Y37653D01*
X283142Y37653D01*
Y37691D01*
X283257D01*
X283257Y37729D01*
X283296D01*
Y37768D01*
X283334Y37768D01*
X283372Y37768D01*
Y37806D01*
X283449D01*
Y37845D01*
X283488D01*
Y37883D01*
X283603D01*
Y37922D01*
X283641D01*
Y37960D01*
X283680Y37960D01*
X283680Y37998D01*
X283718D01*
X283718Y37960D01*
X283757D01*
X283757Y37998D01*
X283795D01*
X283795Y38037D01*
X283834D01*
Y38075D01*
X283910D01*
X283949Y38075D01*
Y38114D01*
X283987D01*
Y38152D01*
X284064D01*
Y38190D01*
X284141D01*
Y38229D01*
X284179D01*
Y38267D01*
X284295D01*
Y38306D01*
X284333Y38306D01*
Y38344D01*
X284448D01*
Y38383D01*
X284487D01*
Y38421D01*
X284525Y38421D01*
Y38460D01*
X284640D01*
Y38498D01*
X284679D01*
Y38536D01*
X284756D01*
Y38575D01*
X284833D01*
Y38613D01*
X284871Y38613D01*
X284909Y38613D01*
Y38652D01*
X284986D01*
Y38690D01*
X285025D01*
X285025Y38728D01*
X285063D01*
X285102Y38728D01*
X285140D01*
Y38767D01*
X285178Y38767D01*
Y38805D01*
X285217D01*
Y38844D01*
X285294D01*
X285332Y38844D01*
Y38882D01*
X285370D01*
Y38921D01*
X285447D01*
Y38959D01*
X285486Y38959D01*
X285524D01*
Y38997D01*
X285562D01*
X285562Y39036D01*
X285678D01*
Y39074D01*
X285716D01*
Y39113D01*
X285755D01*
X285793Y39113D01*
X285831Y39113D01*
Y39151D01*
X285870D01*
Y39189D01*
X285908D01*
Y39228D01*
X286024D01*
Y39266D01*
X286062D01*
X286062Y39305D01*
X286139D01*
Y39343D01*
X286177Y39343D01*
X286216Y39343D01*
Y39382D01*
X286293D01*
Y39420D01*
X286369D01*
Y39459D01*
X286408Y39459D01*
Y39497D01*
X286523D01*
Y39535D01*
X286561D01*
Y39574D01*
X286600D01*
X286600Y39612D01*
X286715D01*
Y39651D01*
X286754D01*
Y39689D01*
X286830D01*
Y39727D01*
X286907D01*
Y39766D01*
X286946Y39766D01*
X286984Y39766D01*
Y39804D01*
X287023Y39804D01*
X287061Y39804D01*
Y39843D01*
X287099D01*
Y39881D01*
X287215D01*
X287215Y39919D01*
X287407D01*
Y39958D01*
X287445D01*
Y39919D01*
X287484D01*
Y39958D01*
X287522D01*
Y39919D01*
X287637D01*
Y39881D01*
X287676D01*
Y39919D01*
X287714D01*
X287714Y39881D01*
X287753D01*
Y39843D01*
X287791D01*
X287791Y39804D01*
X287829D01*
X287868Y39804D01*
Y39766D01*
X287945D01*
Y39689D01*
X288022D01*
Y39574D01*
X288060Y39574D01*
Y39535D01*
X288098D01*
Y39497D01*
X288060D01*
Y39459D01*
X288098D01*
Y39266D01*
X288137D01*
Y39228D01*
X288098D01*
Y39036D01*
X288060D01*
X288060Y38997D01*
X288022D01*
Y38882D01*
X287983D01*
Y38844D01*
X287945D01*
Y38805D01*
X287906D01*
Y38767D01*
X287868Y38767D01*
Y38728D01*
X287829D01*
Y38690D01*
X287791D01*
X287791Y38652D01*
X287753D01*
Y38690D01*
X287714D01*
Y38652D01*
X287676D01*
Y38613D01*
X287637D01*
Y38575D01*
X287561D01*
Y38536D01*
X287484D01*
Y38498D01*
X287407D01*
Y38460D01*
X287368D01*
X287330Y38460D01*
Y38421D01*
X287292Y38421D01*
Y38383D01*
X287253D01*
X287253Y38344D01*
X287215D01*
Y38383D01*
X287176D01*
Y38344D01*
X287138D01*
Y38306D01*
X287099D01*
Y38267D01*
X287061D01*
Y38306D01*
X287023D01*
Y38267D01*
X286984D01*
Y38229D01*
X286946Y38229D01*
Y38190D01*
X286907D01*
X286907Y38229D01*
X286869D01*
Y38190D01*
X286830Y38190D01*
Y38152D01*
X286792Y38152D01*
Y38114D01*
X286715D01*
X286715Y38075D01*
X286638D01*
Y38037D01*
X286600D01*
X286600Y37998D01*
X286485D01*
X286485Y37960D01*
X286446D01*
Y37922D01*
X286408D01*
X286369Y37922D01*
X286331Y37922D01*
Y37883D01*
X286293D01*
Y37845D01*
X286254D01*
Y37806D01*
X286216D01*
Y37845D01*
X286177D01*
Y37806D01*
X286139D01*
Y37768D01*
X286101D01*
Y37729D01*
X286024D01*
Y37691D01*
X285947D01*
X285947Y37653D01*
X285908D01*
X285908Y37614D01*
X285870Y37614D01*
Y37576D01*
X285831D01*
Y37614D01*
X285793D01*
Y37576D01*
X285755Y37576D01*
Y37537D01*
X285639D01*
Y37499D01*
X285601D01*
Y37461D01*
X285562D01*
Y37422D01*
X285524D01*
Y37461D01*
X285486D01*
Y37422D01*
X285447Y37422D01*
X285447Y37384D01*
X285409D01*
X285409Y37345D01*
X285294D01*
Y37307D01*
X285255D01*
Y37268D01*
X285217D01*
X285178Y37268D01*
Y37230D01*
X285102D01*
Y37192D01*
X285063D01*
Y37153D01*
X284948D01*
Y37115D01*
X284909D01*
Y37076D01*
X284871Y37076D01*
X284871Y37038D01*
X284833D01*
Y37076D01*
X284794Y37076D01*
Y37038D01*
X284756D01*
X284756Y36999D01*
X284717D01*
Y36961D01*
X284602D01*
Y36923D01*
X284563Y36923D01*
Y36884D01*
X284525Y36884D01*
X284487Y36884D01*
Y36846D01*
X284410D01*
Y36807D01*
X284371D01*
Y36769D01*
X284256D01*
Y36731D01*
X284218D01*
Y36692D01*
X284179D01*
Y36654D01*
X284141D01*
Y36692D01*
X284103D01*
Y36654D01*
X284064D01*
Y36615D01*
X284026D01*
Y36577D01*
X283987Y36577D01*
X283949Y36577D01*
X283910D01*
Y36538D01*
X283872D01*
Y36500D01*
X283795D01*
Y36461D01*
X283718D01*
Y36423D01*
X283680Y36423D01*
X283641Y36423D01*
Y36385D01*
X283565D01*
Y36346D01*
X283526D01*
Y36308D01*
X283565D01*
Y36193D01*
X283603D01*
Y36154D01*
X283565D01*
X283565Y36116D01*
X283603D01*
Y36077D01*
X283641Y36077D01*
Y35962D01*
X283680D01*
Y35924D01*
X283718D01*
X283718Y35808D01*
X283757D01*
Y35693D01*
X283795D01*
Y35578D01*
X283834D01*
Y35539D01*
X283872D01*
X283872Y35424D01*
X283910D01*
Y35386D01*
X283949Y35386D01*
Y35347D01*
X283910D01*
Y35309D01*
X283949D01*
Y35194D01*
X283987D01*
Y35155D01*
X284026D01*
Y35117D01*
X283987Y35117D01*
Y35078D01*
X284026D01*
Y35040D01*
X284064D01*
Y35002D01*
X284026D01*
Y34963D01*
X284064D01*
Y34925D01*
X284103Y34925D01*
Y34732D01*
X284141D01*
Y34694D01*
X284179D01*
Y34656D01*
X284141D01*
Y34617D01*
X284179D01*
Y34502D01*
X284218D01*
X284218Y34464D01*
X284333D01*
Y34502D01*
X284448D01*
Y34540D01*
X284563D01*
Y34579D01*
X284679D01*
Y34617D01*
X284717D01*
X284717Y34579D01*
X284756Y34579D01*
Y34617D01*
X284794D01*
X284833Y34617D01*
Y34656D01*
X284909D01*
Y34694D01*
X284948D01*
Y34656D01*
X284986D01*
Y34694D01*
X285063D01*
X285063Y34732D01*
X285140D01*
Y34771D01*
X285178D01*
Y34732D01*
X285217Y34732D01*
Y34771D01*
X285332D01*
X285332Y34809D01*
X285447D01*
X285447Y34848D01*
X285486Y34848D01*
Y34809D01*
X285524D01*
Y34848D01*
X285562D01*
Y34886D01*
X285678D01*
Y34925D01*
X285716D01*
X285716Y34886D01*
X285755D01*
Y34925D01*
X285831D01*
X285870Y34925D01*
Y34963D01*
X285985D01*
Y35002D01*
X286101D01*
Y35040D01*
X286216D01*
Y35078D01*
X286254Y35078D01*
X286331D01*
Y35117D01*
X286369Y35117D01*
X286408Y35117D01*
X286446D01*
Y35155D01*
X286485D01*
Y35117D01*
X286523Y35117D01*
X286523Y35155D01*
X286600D01*
Y35194D01*
X286677D01*
Y35232D01*
X286715D01*
Y35194D01*
X286754D01*
Y35232D01*
X286869D01*
Y35270D01*
X286907D01*
Y35309D01*
X286946D01*
Y35270D01*
X286984D01*
Y35309D01*
X287023D01*
Y35270D01*
X287061Y35270D01*
Y35309D01*
X287099D01*
Y35347D01*
X287215D01*
Y35386D01*
X287253D01*
X287253Y35347D01*
X287292D01*
Y35386D01*
X287330Y35386D01*
Y35424D01*
X287445D01*
X287445Y35462D01*
X287484D01*
Y35424D01*
X287522D01*
Y35462D01*
X287637D01*
X287637Y35501D01*
X287676D01*
Y35539D01*
X287714D01*
Y35501D01*
X287753D01*
Y35539D01*
X287868D01*
Y35578D01*
X287906Y35578D01*
X287945Y35578D01*
X287983Y35578D01*
Y35616D01*
X288137D01*
Y35655D01*
X288214D01*
Y35693D01*
X288252D01*
X288252Y35655D01*
X288291D01*
Y35693D01*
X288329D01*
X288367Y35693D01*
X288406D01*
Y35732D01*
X288444D01*
Y35770D01*
X288483D01*
X288483Y35732D01*
X288521D01*
Y35770D01*
X288560D01*
Y35732D01*
X288598D01*
X288598Y35770D01*
X288636D01*
Y35808D01*
X288752D01*
Y35847D01*
X288790D01*
Y35808D01*
X288828D01*
Y35847D01*
X288944D01*
Y35885D01*
X288982D01*
Y35847D01*
X289021D01*
Y35885D01*
X289059D01*
Y35847D01*
X289097D01*
Y35885D01*
X289136D01*
Y35847D01*
X289251D01*
Y35808D01*
X289366D01*
Y35770D01*
X289405D01*
Y35732D01*
X289443D01*
X289443Y35693D01*
X289482D01*
Y35655D01*
X289520D01*
Y35616D01*
X289559D01*
Y35578D01*
X289597D01*
Y35539D01*
X289635D01*
Y35424D01*
X289674D01*
Y35386D01*
X289635D01*
X289635Y35347D01*
X289674D01*
Y35309D01*
X289712D01*
Y35270D01*
X289674Y35270D01*
Y35232D01*
X289712D01*
Y35194D01*
X289674D01*
Y35155D01*
X289712Y35155D01*
Y35117D01*
X289674D01*
Y35002D01*
X289635D01*
X289635Y34886D01*
X289597D01*
Y34848D01*
X289559D01*
Y34771D01*
X289520D01*
Y34732D01*
X289482Y34732D01*
Y34694D01*
X289405D01*
Y34656D01*
X289366D01*
Y34617D01*
X289328D01*
Y34579D01*
X289289Y34579D01*
X289251Y34579D01*
X289213Y34579D01*
Y34540D01*
X289174Y34540D01*
X289097D01*
Y34502D01*
X289059D01*
Y34540D01*
X289021D01*
Y34502D01*
X288982D01*
Y34464D01*
X288867D01*
Y34425D01*
X288828D01*
Y34464D01*
X288790D01*
X288790Y34425D01*
X288713D01*
X288675Y34425D01*
Y34387D01*
X288636Y34387D01*
Y34348D01*
X288598D01*
X288598Y34387D01*
X288560D01*
Y34348D01*
X288444D01*
X288444Y34310D01*
X288406D01*
Y34271D01*
X288367D01*
Y34310D01*
X288329D01*
X288329Y34271D01*
X288214D01*
Y34233D01*
X288175Y34233D01*
X288137Y34233D01*
X288098Y34233D01*
Y34195D01*
X288060D01*
Y34233D01*
X288022Y34233D01*
Y34195D01*
X287983Y34195D01*
X287945D01*
Y34156D01*
X287868D01*
X287868Y34118D01*
X287829D01*
Y34156D01*
X287791D01*
X287791Y34118D01*
X287676D01*
Y34079D01*
X287561D01*
Y34041D01*
X287522Y34041D01*
Y34079D01*
X287484D01*
Y34041D01*
X287445D01*
X287445Y34003D01*
X287330D01*
Y33964D01*
X287292D01*
X287292Y34003D01*
X287253D01*
Y33964D01*
X287138D01*
Y33926D01*
X287099Y33926D01*
Y33887D01*
X287061D01*
Y33926D01*
X287023Y33926D01*
Y33887D01*
X286907D01*
Y33849D01*
X286869D01*
Y33810D01*
X286830Y33810D01*
Y33849D01*
X286792D01*
Y33810D01*
X286677D01*
Y33772D01*
X286638Y33772D01*
Y33733D01*
X286600D01*
X286600Y33772D01*
X286561D01*
Y33733D01*
X286446D01*
Y33695D01*
X286408D01*
X286369Y33695D01*
X286331Y33695D01*
Y33657D01*
X286293D01*
Y33695D01*
X286254D01*
X286254Y33657D01*
X286177D01*
Y33618D01*
X286024D01*
Y33580D01*
X285985D01*
X285947Y33580D01*
X285908Y33580D01*
Y33541D01*
X285870Y33541D01*
X285831Y33541D01*
X285793D01*
Y33503D01*
X285755Y33503D01*
Y33541D01*
X285716D01*
X285716Y33503D01*
X285678D01*
Y33465D01*
X285562D01*
X285562Y33426D01*
X285524D01*
Y33465D01*
X285486D01*
Y33426D01*
X285370D01*
Y33388D01*
X285332Y33388D01*
Y33349D01*
X285294D01*
Y33388D01*
X285255D01*
X285255Y33349D01*
X285140D01*
Y33311D01*
X285102D01*
Y33272D01*
X285063Y33272D01*
X285063Y33311D01*
X285025D01*
X285025Y33272D01*
X284909D01*
X284909Y33234D01*
X284871Y33234D01*
X284833Y33234D01*
X284794D01*
Y33196D01*
X284756D01*
Y33234D01*
X284717Y33234D01*
Y33196D01*
X284679D01*
Y33157D01*
X284563D01*
Y33042D01*
X284602Y33042D01*
Y33004D01*
X284563D01*
X284563Y32965D01*
X284602D01*
X284602Y32927D01*
X284640D01*
Y32888D01*
X284602Y32888D01*
Y32850D01*
X284640Y32850D01*
Y32658D01*
X284679D01*
Y32619D01*
X284640D01*
Y32581D01*
X284679D01*
Y32466D01*
X284717D01*
X284717Y32427D01*
X284679D01*
Y32389D01*
X284717D01*
X284717Y32197D01*
X284756D01*
Y32158D01*
X284717D01*
X284717Y32120D01*
X284756D01*
Y32081D01*
X284717D01*
Y32043D01*
X284756Y32043D01*
Y32004D01*
X284794D01*
Y31966D01*
X284756D01*
Y31928D01*
X284794D01*
Y31889D01*
X284756D01*
Y31851D01*
X284794Y31851D01*
Y31659D01*
X284833D01*
X284833Y31620D01*
X284794D01*
Y31582D01*
X284833D01*
X284833Y31543D01*
X284794D01*
Y31505D01*
X284833Y31505D01*
Y31313D01*
X284871Y31313D01*
Y31275D01*
X284833D01*
Y31236D01*
X284871D01*
Y31198D01*
X284833D01*
Y31159D01*
X284871Y31159D01*
X284909Y31159D01*
X284948Y31159D01*
Y31198D01*
X284986D01*
Y31159D01*
X285025Y31159D01*
X285063Y31159D01*
X285102Y31159D01*
X285140D01*
X285178Y31159D01*
X285255D01*
X285255Y31198D01*
X285294D01*
Y31159D01*
X285332Y31159D01*
X285370Y31159D01*
X285409Y31159D01*
X285447D01*
X285486Y31159D01*
X285524D01*
X285562Y31159D01*
Y31198D01*
X285601D01*
Y31159D01*
X285639Y31159D01*
X285678Y31159D01*
X285831D01*
X285870Y31159D01*
Y31198D01*
X285908D01*
Y31159D01*
X285947Y31159D01*
X285985Y31159D01*
X286024D01*
X286062Y31159D01*
X286101Y31159D01*
X286139D01*
X286177Y31159D01*
Y31198D01*
X286216D01*
Y31159D01*
X286254Y31159D01*
X286293Y31159D01*
X286331D01*
X286369Y31159D01*
X286408Y31159D01*
X286446D01*
X286485Y31159D01*
Y31198D01*
X286523D01*
Y31159D01*
X286561D01*
X286600Y31159D01*
X286638Y31159D01*
X286677Y31159D01*
X286715Y31159D01*
X286754D01*
X286792Y31159D01*
Y31198D01*
X286830D01*
Y31159D01*
X286869D01*
X286907Y31159D01*
X286946Y31159D01*
X286984Y31159D01*
X287023Y31159D01*
X287099D01*
Y31198D01*
X287138D01*
Y31159D01*
X287176D01*
X287215Y31159D01*
X287253Y31159D01*
X287292Y31159D01*
X287330Y31159D01*
X287407D01*
Y31198D01*
X287445D01*
Y31159D01*
X287561D01*
X287599Y31159D01*
X287637Y31159D01*
X287676D01*
X287714Y31159D01*
Y31198D01*
X287753D01*
Y31159D01*
X287983D01*
X288022Y31159D01*
Y31198D01*
X288060D01*
Y31159D01*
X288291D01*
X288329Y31159D01*
Y31198D01*
X288367D01*
Y31159D01*
X288406D01*
X288444Y31159D01*
X288483Y31159D01*
X288598D01*
X288636Y31159D01*
Y31198D01*
X288675D01*
Y31159D01*
X288713D01*
X288752Y31159D01*
X288790Y31159D01*
X288944D01*
X288944Y31198D01*
X288982D01*
Y31159D01*
X289251D01*
Y31198D01*
X289289D01*
Y31159D01*
X289559D01*
Y31198D01*
X289597D01*
Y31159D01*
X289751D01*
X289789Y31159D01*
Y31121D01*
X289827D01*
Y31159D01*
X289866D01*
Y31121D01*
X289981D01*
Y31082D01*
X290019D01*
Y31044D01*
X290058D01*
Y31005D01*
X290096Y31005D01*
Y30967D01*
X290135D01*
Y30929D01*
X290173D01*
Y30890D01*
X290212D01*
Y30852D01*
X290250D01*
Y30737D01*
X290288Y30737D01*
Y30698D01*
X290327Y30698D01*
Y30660D01*
X290288D01*
Y30621D01*
X290327D01*
Y30352D01*
X290288D01*
X290288Y30314D01*
X290327D01*
Y30275D01*
X290288D01*
Y30237D01*
X290250D01*
X290250Y30122D01*
X290212D01*
Y30083D01*
X290173D01*
Y30045D01*
X290135D01*
Y30007D01*
X290096D01*
X290096Y29968D01*
X290058D01*
Y29930D01*
X290019D01*
Y29891D01*
X289981Y29891D01*
Y29930D01*
X289943D01*
Y29891D01*
X289904D01*
Y29853D01*
X289789D01*
Y29814D01*
X289751Y29814D01*
Y29853D01*
X289712D01*
Y29814D01*
X289674Y29814D01*
Y29853D01*
X289635D01*
X289635Y29814D01*
X289597D01*
Y29853D01*
X289559D01*
Y29814D01*
X289520Y29814D01*
Y29853D01*
X289482D01*
Y29814D01*
X289443Y29814D01*
Y29853D01*
X289405D01*
Y29814D01*
X289366D01*
Y29853D01*
X289328D01*
Y29814D01*
X289289D01*
X289289Y29853D01*
X289251D01*
Y29814D01*
X289213Y29814D01*
Y29853D01*
X289174D01*
Y29814D01*
X289136D01*
X289136Y29853D01*
X289097D01*
Y29814D01*
X289059D01*
Y29853D01*
X289021D01*
Y29814D01*
X288982Y29814D01*
Y29853D01*
X288944D01*
Y29814D01*
X288905Y29814D01*
Y29853D01*
X288867D01*
Y29814D01*
X288828D01*
Y29853D01*
X288790D01*
X288790Y29814D01*
X288752D01*
Y29853D01*
X288713D01*
Y29814D01*
X288675Y29814D01*
Y29853D01*
X288636D01*
Y29814D01*
X288598D01*
X288598Y29853D01*
X288560D01*
Y29814D01*
X288521D01*
Y29853D01*
X288483D01*
Y29814D01*
X288444Y29814D01*
Y29853D01*
X288406D01*
Y29814D01*
X288367D01*
Y29853D01*
X288329D01*
Y29814D01*
X288291D01*
Y29853D01*
X288252D01*
X288252Y29814D01*
X288214D01*
Y29853D01*
X288175D01*
Y29814D01*
X288137Y29814D01*
Y29853D01*
X288098D01*
X288098Y29814D01*
X288060D01*
X288060Y29853D01*
X288022D01*
Y29814D01*
X287983D01*
Y29853D01*
X287945D01*
X287945Y29814D01*
X287906D01*
Y29853D01*
X287868D01*
Y29814D01*
X287829Y29814D01*
Y29853D01*
X287791D01*
X287791Y29814D01*
X287753D01*
Y29853D01*
X287714D01*
Y29814D01*
X287676D01*
Y29853D01*
X287637D01*
Y29814D01*
X287599Y29814D01*
Y29853D01*
X287561D01*
Y29814D01*
X287522Y29814D01*
Y29853D01*
X287484D01*
Y29814D01*
X287445D01*
X287445Y29853D01*
X287407D01*
Y29814D01*
X287368D01*
Y29853D01*
X287330D01*
Y29814D01*
X287292Y29814D01*
Y29853D01*
X287253D01*
X287253Y29814D01*
X287215D01*
Y29853D01*
X287176D01*
Y29814D01*
X287138Y29814D01*
Y29853D01*
X287099D01*
Y29814D01*
X287061D01*
Y29853D01*
X287023D01*
Y29814D01*
X286984Y29814D01*
Y29853D01*
X286946D01*
Y29814D01*
X286907D01*
Y29853D01*
X286869D01*
Y29814D01*
X286830Y29814D01*
Y29853D01*
X286792D01*
Y29814D01*
X286754D01*
X286754Y29853D01*
X286715D01*
X286715Y29814D01*
X286677D01*
Y29853D01*
X286638D01*
Y29814D01*
X286600D01*
Y29853D01*
X286561D01*
Y29814D01*
X286523Y29814D01*
Y29853D01*
X286485D01*
Y29814D01*
X286446D01*
Y29853D01*
X286408D01*
Y29814D01*
X286369D01*
Y29853D01*
X286331D01*
Y29814D01*
X286293D01*
Y29853D01*
X286254D01*
Y29814D01*
X286216D01*
X286216Y29853D01*
X286177D01*
Y29814D01*
X286139D01*
Y29853D01*
X286101D01*
Y29814D01*
X286062D01*
Y29853D01*
X286024D01*
Y29814D01*
X285985D01*
Y29853D01*
X285947D01*
Y29814D01*
X285908D01*
X285908Y29853D01*
X285870D01*
Y29814D01*
X285831D01*
Y29853D01*
X285793D01*
Y29814D01*
X285755Y29814D01*
Y29853D01*
X285716D01*
Y29814D01*
X285678D01*
Y29853D01*
X285639D01*
Y29814D01*
X285601D01*
Y29853D01*
X285562D01*
Y29814D01*
X285524D01*
Y29853D01*
X285486D01*
Y29814D01*
X285447Y29814D01*
Y29853D01*
X285409D01*
Y29814D01*
X285370D01*
Y29853D01*
X285332D01*
Y29814D01*
X285294D01*
Y29853D01*
X285255D01*
Y29814D01*
X285217D01*
Y29853D01*
X285178D01*
Y29814D01*
X285140Y29814D01*
Y29853D01*
X285102D01*
Y29814D01*
X285063D01*
X285063Y29853D01*
X285025D01*
Y29814D01*
X284986D01*
Y29853D01*
X284948D01*
Y29814D01*
X284909D01*
Y29853D01*
X284871D01*
X284871Y29814D01*
X284833D01*
Y29853D01*
X284794D01*
Y29814D01*
X284679D01*
Y29853D01*
X284640D01*
Y29814D01*
X284525D01*
Y29853D01*
X284487D01*
Y29814D01*
X284371D01*
Y29853D01*
X284333D01*
Y29814D01*
X284218D01*
Y29853D01*
X284179D01*
Y29814D01*
X284064D01*
Y29853D01*
X284026D01*
Y29814D01*
X283987D01*
X283949Y29814D01*
X283910Y29814D01*
Y29853D01*
X283872D01*
Y29814D01*
X283757D01*
Y29853D01*
X283718D01*
X283718Y29814D01*
X283680D01*
X283641Y29814D01*
Y27432D01*
X283603Y27432D01*
Y27394D01*
X283565D01*
Y27279D01*
X283526D01*
Y27317D01*
X283488D01*
Y27240D01*
X283411D01*
X283411Y27202D01*
X283296D01*
Y27163D01*
X283257Y27163D01*
X283219Y27163D01*
X283180Y27163D01*
X283142Y27163D01*
X283103D01*
Y27125D01*
X283065Y27125D01*
Y27163D01*
X282988D01*
X282950Y27163D01*
Y27125D01*
X282911Y27125D01*
Y27163D01*
X282796D01*
Y27125D01*
X282758D01*
Y27163D01*
X282681D01*
X282642Y27163D01*
X282604Y27163D01*
X282604Y27202D01*
X282527D01*
Y27240D01*
X282489D01*
Y27279D01*
X282450D01*
Y27317D01*
X282412D01*
Y27355D01*
X282373D01*
Y27394D01*
X282335D01*
Y27509D01*
X282297Y27509D01*
Y27547D01*
X282335D01*
Y27586D01*
X282297D01*
Y27855D01*
X282335D01*
Y27893D01*
X282297D01*
Y28470D01*
X282335Y28470D01*
Y28508D01*
X282297D01*
X282297Y29084D01*
X282335D01*
X282335Y29123D01*
X282297D01*
Y29699D01*
X282335Y29699D01*
X282335Y29738D01*
X282297D01*
Y29814D01*
X282258Y29814D01*
X282220D01*
Y29853D01*
X282181D01*
Y29814D01*
X282104D01*
X282066Y29814D01*
Y29853D01*
X282028D01*
Y29814D01*
X281989Y29814D01*
X281951Y29814D01*
X281912D01*
Y29853D01*
X281874D01*
X281874Y29814D01*
X281836D01*
X281797Y29814D01*
X281759D01*
Y29853D01*
X281720D01*
Y29814D01*
X281605D01*
Y29853D01*
X281567D01*
Y29814D01*
X281528Y29814D01*
X281490Y29814D01*
X281451D01*
Y29853D01*
X281413D01*
Y29814D01*
X281298D01*
Y29853D01*
X281259D01*
Y29814D01*
X281221Y29814D01*
X281144D01*
X281144Y29853D01*
X281105D01*
Y29814D01*
X280990D01*
Y29853D01*
X280952D01*
Y29814D01*
X280913Y29814D01*
X280837D01*
Y29853D01*
X280798D01*
Y29814D01*
X280760D01*
X280721Y29814D01*
X280683Y29814D01*
Y29699D01*
X280644Y29699D01*
Y29661D01*
X280683D01*
X280683Y29546D01*
X280644D01*
Y29507D01*
X280683Y29507D01*
Y29392D01*
X280644D01*
X280644Y29353D01*
X280683D01*
Y29238D01*
X280644D01*
Y29200D01*
X280683D01*
Y29084D01*
X280644D01*
X280644Y29046D01*
X280683D01*
Y28931D01*
X280644D01*
Y28892D01*
X280683D01*
Y28777D01*
X280644D01*
X280644Y28739D01*
X280683D01*
X280683Y28623D01*
X280644D01*
Y28585D01*
X280683D01*
Y28470D01*
X280644Y28470D01*
Y28431D01*
X280683D01*
X280683Y28316D01*
X280644D01*
X280644Y28278D01*
X280683D01*
Y28162D01*
X280644Y28162D01*
Y28124D01*
X280683D01*
Y28009D01*
X280644D01*
Y27970D01*
X280683Y27970D01*
Y27855D01*
X280644D01*
Y27816D01*
X280683Y27816D01*
Y27701D01*
X280644D01*
Y27663D01*
X280683Y27663D01*
Y27547D01*
X280644D01*
X280644Y27509D01*
X280683D01*
Y27471D01*
X280644Y27471D01*
Y27355D01*
X280606D01*
Y27317D01*
X280568D01*
Y27279D01*
X280529Y27279D01*
Y27240D01*
X280491D01*
X280491Y27202D01*
X280452D01*
Y27240D01*
X280414D01*
Y27202D01*
X280376Y27202D01*
Y27163D01*
X280337Y27163D01*
X280183D01*
X280183Y27125D01*
X280145D01*
Y27163D01*
X280106D01*
X280068Y27163D01*
X280030Y27163D01*
Y27125D01*
X279991D01*
X279991Y27163D01*
X279876D01*
Y27125D01*
X279838Y27125D01*
Y27163D01*
X279799D01*
X279761Y27163D01*
X279722Y27163D01*
X279645D01*
Y27202D01*
X279607D01*
X279607Y27240D01*
X279569D01*
Y27202D01*
X279530D01*
Y27240D01*
X279492D01*
Y27279D01*
X279453D01*
Y27317D01*
X279415D01*
Y27355D01*
X279377D01*
Y27471D01*
X279338Y27471D01*
Y27509D01*
X279377Y27509D01*
Y27547D01*
X279338D01*
Y27663D01*
X279300Y27663D01*
Y27701D01*
X279338D01*
Y27740D01*
X279377D01*
X279377Y27778D01*
X279338D01*
Y27816D01*
X279300Y27816D01*
Y27855D01*
X279338D01*
Y27970D01*
X279300D01*
X279300Y28009D01*
X279338D01*
Y28124D01*
X279300D01*
Y28162D01*
X279338Y28162D01*
Y28278D01*
X279300D01*
X279300Y28316D01*
X279338D01*
X279338Y28354D01*
X279377Y28354D01*
Y28393D01*
X279338D01*
Y28431D01*
X279300D01*
Y28470D01*
X279338Y28470D01*
Y28585D01*
X279300D01*
Y28623D01*
X279338D01*
X279338Y28739D01*
X279300D01*
X279300Y28777D01*
X279338D01*
Y28892D01*
X279300D01*
Y28931D01*
X279338D01*
Y28969D01*
X279377D01*
Y29008D01*
X279338Y29008D01*
Y29046D01*
X279300D01*
X279300Y29084D01*
X279338D01*
Y29200D01*
X279300D01*
Y29238D01*
X279338D01*
Y29353D01*
X279300D01*
X279300Y29392D01*
X279338D01*
Y29507D01*
X279300Y29507D01*
Y29546D01*
X279338D01*
Y29584D01*
X279377D01*
Y29622D01*
X279338D01*
X279338Y29661D01*
X279300D01*
Y29699D01*
X279338Y29699D01*
Y29814D01*
X279300D01*
X279300Y29853D01*
X279261D01*
Y29814D01*
X279146D01*
Y29853D01*
X279107D01*
Y29814D01*
X279069Y29814D01*
X279031Y29814D01*
X278992D01*
X278992Y29853D01*
X278954D01*
Y29814D01*
X278915D01*
X278877Y29814D01*
X278839Y29814D01*
Y29853D01*
X278800D01*
Y29814D01*
X278762Y29814D01*
X278723Y29814D01*
X278685D01*
Y29853D01*
X278646D01*
X278646Y29814D01*
X278608D01*
X278570Y29814D01*
X278531Y29814D01*
Y29853D01*
X278493D01*
Y29814D01*
X278378D01*
Y29853D01*
X278339D01*
Y29814D01*
X278301Y29814D01*
X278262Y29814D01*
X278224Y29814D01*
Y29853D01*
X278185D01*
Y29814D01*
X278070D01*
Y29853D01*
X278032D01*
Y29814D01*
X277993Y29814D01*
X277916D01*
Y29853D01*
X277878D01*
Y29814D01*
X277763D01*
Y29853D01*
X277724D01*
Y29814D01*
X277686D01*
Y29776D01*
X277724D01*
Y29738D01*
X277686D01*
X277686Y29699D01*
X277724D01*
Y29661D01*
X277686Y29661D01*
Y29622D01*
X277724D01*
Y29584D01*
X277686D01*
Y29546D01*
X277724D01*
Y29507D01*
X277686D01*
Y29469D01*
X277724D01*
Y29430D01*
X277686D01*
X277686Y29392D01*
X277724D01*
Y29353D01*
X277686D01*
Y29315D01*
X277724D01*
Y29276D01*
X277686D01*
Y29238D01*
X277724D01*
Y29200D01*
X277686D01*
Y29161D01*
X277724D01*
Y29123D01*
X277686Y29123D01*
Y29084D01*
X277724D01*
Y29046D01*
X277686D01*
Y29008D01*
X277724D01*
Y28969D01*
X277686D01*
Y28931D01*
X277724D01*
Y28892D01*
X277686D01*
Y28854D01*
X277724D01*
Y28815D01*
X277686Y28815D01*
Y28777D01*
X277724D01*
Y28739D01*
X277686D01*
Y28700D01*
X277724D01*
Y28662D01*
X277686D01*
Y28623D01*
X277724Y28623D01*
Y28585D01*
X277686D01*
Y28547D01*
X277724D01*
Y28508D01*
X277686D01*
Y28470D01*
X277724D01*
Y28431D01*
X277686D01*
Y28393D01*
X277724D01*
Y28354D01*
X277686D01*
Y28316D01*
X277724Y28316D01*
Y28278D01*
X277686D01*
Y28239D01*
X277724D01*
Y28201D01*
X277686D01*
Y28162D01*
X277724D01*
Y28124D01*
X277686D01*
Y28085D01*
X277724D01*
Y28047D01*
X277686D01*
Y28009D01*
X277724D01*
Y27970D01*
X277686D01*
Y27932D01*
X277724D01*
Y27893D01*
X277686D01*
Y27855D01*
X277724D01*
Y27816D01*
X277686D01*
Y27778D01*
X277724D01*
Y27740D01*
X277686D01*
Y27701D01*
X277724D01*
Y27663D01*
X277686D01*
Y27624D01*
X277724D01*
Y27586D01*
X277686D01*
Y27547D01*
X277724D01*
Y27509D01*
X277686D01*
Y27471D01*
X277647Y27471D01*
X277647Y27432D01*
X277686D01*
Y27394D01*
X277647D01*
Y27355D01*
X277609D01*
Y27317D01*
X277571D01*
Y27279D01*
X277532D01*
Y27240D01*
X277494D01*
Y27202D01*
X277379D01*
Y27163D01*
X277340Y27163D01*
X277263D01*
Y27125D01*
X277225Y27125D01*
Y27163D01*
X277186Y27163D01*
X277148D01*
X277110Y27163D01*
Y27125D01*
X277071D01*
Y27163D01*
X277033Y27163D01*
X276956D01*
X276956Y27125D01*
X276917Y27125D01*
Y27163D01*
X276879Y27163D01*
X276841D01*
X276802Y27163D01*
X276764Y27163D01*
X276725Y27163D01*
X276687D01*
X276648Y27163D01*
Y27202D01*
X276610D01*
X276610Y27240D01*
X276572D01*
Y27202D01*
X276533D01*
Y27279D01*
X276495Y27279D01*
X276456Y27279D01*
Y27394D01*
X276418D01*
Y27432D01*
X276379D01*
Y27624D01*
X276341D01*
Y27663D01*
X276379D01*
Y27701D01*
X276341D01*
Y27740D01*
X276379D01*
Y27778D01*
X276341D01*
Y27816D01*
X276379D01*
Y27855D01*
X276341D01*
Y27893D01*
X276379D01*
Y27932D01*
X276341D01*
Y27970D01*
X276379D01*
Y28009D01*
X276341D01*
Y28047D01*
X276379D01*
Y28085D01*
X276341D01*
Y28124D01*
X276379D01*
Y28162D01*
X276341D01*
Y28201D01*
X276379D01*
Y28239D01*
X276341D01*
Y28278D01*
X276379D01*
Y28316D01*
X276341Y28316D01*
Y28354D01*
X276379D01*
Y28393D01*
X276341D01*
Y28431D01*
X276379D01*
Y28470D01*
X276341D01*
Y28508D01*
X276379D01*
Y28547D01*
X276341D01*
Y28585D01*
X276379D01*
Y28623D01*
X276341Y28623D01*
Y28662D01*
X276379D01*
Y28700D01*
X276341D01*
Y28739D01*
X276379D01*
Y28777D01*
X276341D01*
Y28815D01*
X276379Y28815D01*
Y28854D01*
X276341D01*
Y28892D01*
X276379D01*
Y28931D01*
X276341D01*
Y28969D01*
X276379D01*
Y29008D01*
X276341D01*
Y29046D01*
X276379D01*
Y29084D01*
X276341D01*
Y29123D01*
X276379Y29123D01*
Y29161D01*
X276341D01*
Y29200D01*
X276379D01*
Y29238D01*
X276341D01*
Y29276D01*
X276379D01*
Y29315D01*
X276341D01*
Y29353D01*
X276379D01*
Y29392D01*
X276341D01*
X276341Y29430D01*
X276379D01*
Y29469D01*
X276341D01*
Y29507D01*
X276379D01*
Y29546D01*
X276341D01*
Y29584D01*
X276379D01*
Y29622D01*
X276341D01*
Y29661D01*
X276379Y29661D01*
Y29699D01*
X276341D01*
X276341Y29738D01*
X276379D01*
Y29776D01*
X276341D01*
Y29814D01*
X276226D01*
Y29853D01*
X276187D01*
Y29814D01*
X276072D01*
Y29853D01*
X276034D01*
Y29814D01*
X275918D01*
Y29853D01*
X275880D01*
Y29814D01*
X275765D01*
Y29853D01*
X275726D01*
Y29814D01*
X275611D01*
Y29853D01*
X275573D01*
Y29814D01*
X275457D01*
X275457Y29853D01*
X275419D01*
Y29814D01*
X275304D01*
Y29853D01*
X275265D01*
Y29814D01*
X275188D01*
X275150Y29814D01*
Y29853D01*
X275112D01*
Y29814D01*
X274996D01*
Y29853D01*
X274958D01*
X274958Y29814D01*
X274881D01*
X274843Y29814D01*
Y29853D01*
X274804D01*
Y29814D01*
X274727D01*
Y27432D01*
X274689D01*
Y27394D01*
X274651D01*
Y27279D01*
X274612Y27279D01*
Y27317D01*
X274574D01*
Y27240D01*
X274497D01*
Y27202D01*
X274382D01*
Y27163D01*
X274343Y27163D01*
X274189D01*
Y27125D01*
X274151D01*
Y27163D01*
X274036D01*
Y27125D01*
X273997Y27125D01*
Y27163D01*
X273959Y27163D01*
X273920Y27163D01*
X273882D01*
Y27125D01*
X273844D01*
Y27163D01*
X273690D01*
Y27202D01*
X273613D01*
X273613Y27240D01*
X273575D01*
Y27279D01*
X273536D01*
Y27317D01*
X273498Y27317D01*
Y27355D01*
X273459D01*
Y27394D01*
X273421D01*
X273421Y27432D01*
X273383D01*
Y27471D01*
X273421D01*
X273421Y27509D01*
X273383D01*
Y29814D01*
X273344D01*
X273306Y29814D01*
Y29853D01*
X273267D01*
Y29814D01*
X273229Y29814D01*
X273190D01*
X273152Y29814D01*
Y29853D01*
X273114D01*
Y29814D01*
X273037D01*
X272998Y29814D01*
Y29853D01*
X272960D01*
Y29814D01*
X272845D01*
Y29853D01*
X272806D01*
Y29814D01*
X272768Y29814D01*
X272729Y29814D01*
X272691Y29814D01*
Y29853D01*
X272653D01*
Y29814D01*
X272537D01*
Y29853D01*
X272499D01*
Y29814D01*
X272460Y29814D01*
X272422Y29814D01*
X272384D01*
X272384Y29853D01*
X272345D01*
Y29814D01*
X272230D01*
X272230Y29853D01*
X272192D01*
Y29814D01*
X272153Y29814D01*
X272115Y29814D01*
X272076D01*
X272076Y29853D01*
X272038D01*
Y29814D01*
X271999D01*
X271961Y29814D01*
X271922D01*
Y29853D01*
X271884D01*
Y29814D01*
X271846Y29814D01*
X271807Y29814D01*
X271769D01*
Y29776D01*
X271730D01*
Y29738D01*
X271769D01*
Y29699D01*
X271730D01*
X271730Y29661D01*
X271769D01*
Y29622D01*
X271730D01*
Y29584D01*
X271769D01*
Y29546D01*
X271730D01*
Y29507D01*
X271769Y29507D01*
Y29469D01*
X271730D01*
Y29430D01*
X271769D01*
Y29392D01*
X271730D01*
X271730Y29353D01*
X271769D01*
Y29315D01*
X271730D01*
X271730Y29276D01*
X271769D01*
Y29238D01*
X271730D01*
Y29200D01*
X271769D01*
Y29161D01*
X271730Y29161D01*
Y29123D01*
X271769D01*
Y29084D01*
X271730D01*
X271730Y29046D01*
X271769D01*
Y29008D01*
X271730D01*
X271730Y28969D01*
X271769D01*
Y28931D01*
X271730D01*
Y28892D01*
X271769D01*
Y28854D01*
X271730D01*
X271730Y28815D01*
X271769D01*
Y28777D01*
X271730D01*
X271730Y28739D01*
X271769D01*
Y28700D01*
X271730D01*
Y28662D01*
X271769Y28662D01*
Y28623D01*
X271730D01*
Y28585D01*
X271769D01*
Y28547D01*
X271730D01*
X271730Y28508D01*
X271769D01*
Y28470D01*
X271730D01*
X271730Y28431D01*
X271769D01*
Y28393D01*
X271730D01*
X271730Y28354D01*
X271769D01*
Y28316D01*
X271730D01*
X271730Y28278D01*
X271769D01*
Y28239D01*
X271730D01*
X271730Y28201D01*
X271769D01*
Y28162D01*
X271730Y28162D01*
Y28124D01*
X271769D01*
Y28085D01*
X271730D01*
X271730Y28047D01*
X271769D01*
Y28009D01*
X271730D01*
X271730Y27970D01*
X271769D01*
Y27932D01*
X271730D01*
X271730Y27893D01*
X271769D01*
Y27855D01*
X271730D01*
X271730Y27816D01*
X271769D01*
Y27778D01*
X271730D01*
X271730Y27740D01*
X271769D01*
Y27701D01*
X271730D01*
Y27663D01*
X271769Y27663D01*
Y27624D01*
X271730D01*
Y27586D01*
X271769D01*
Y27547D01*
X271730D01*
X271730Y27509D01*
X271769D01*
Y27471D01*
X271730D01*
X271730Y27432D01*
X271692D01*
Y27355D01*
X271654D01*
Y27279D01*
X271615Y27279D01*
Y27240D01*
X271577D01*
X271577Y27202D01*
X271538D01*
X271538Y27240D01*
X271500D01*
Y27202D01*
X271461D01*
Y27163D01*
X271269D01*
Y27125D01*
X271231D01*
Y27163D01*
X271193Y27163D01*
X271154Y27163D01*
X271116D01*
Y27125D01*
X271077Y27125D01*
X271077Y27163D01*
X270962D01*
Y27125D01*
X270923D01*
Y27163D01*
X270808D01*
Y27125D01*
X270770Y27125D01*
Y27163D01*
X270731Y27163D01*
X270731Y27202D01*
X270693D01*
Y27240D01*
X270655D01*
Y27202D01*
X270616D01*
X270616Y27240D01*
X270578D01*
Y27279D01*
X270539D01*
Y27317D01*
X270501Y27317D01*
Y27355D01*
X270462D01*
Y27471D01*
X270424Y27471D01*
Y27586D01*
X270386D01*
Y27624D01*
X270424D01*
Y27663D01*
X270386Y27663D01*
Y27701D01*
X270424D01*
Y27740D01*
X270386D01*
X270386Y27778D01*
X270424D01*
Y27816D01*
X270386Y27816D01*
Y27855D01*
X270424D01*
Y27893D01*
X270386D01*
X270386Y27932D01*
X270424D01*
Y27970D01*
X270386D01*
X270386Y28009D01*
X270424D01*
Y28047D01*
X270386D01*
X270386Y28085D01*
X270424D01*
Y28124D01*
X270386D01*
Y28162D01*
X270424Y28162D01*
Y28201D01*
X270386D01*
X270386Y28239D01*
X270424D01*
Y28278D01*
X270386D01*
X270386Y28316D01*
X270424D01*
Y28354D01*
X270386D01*
X270386Y28393D01*
X270424D01*
Y28431D01*
X270386D01*
X270386Y28470D01*
X270424D01*
Y28508D01*
X270386D01*
X270386Y28547D01*
X270424D01*
Y28585D01*
X270386D01*
Y28623D01*
X270424D01*
Y28662D01*
X270386Y28662D01*
Y28700D01*
X270424D01*
Y28739D01*
X270386D01*
X270386Y28777D01*
X270424D01*
Y28815D01*
X270386D01*
X270386Y28854D01*
X270424D01*
Y28892D01*
X270386D01*
Y28931D01*
X270424D01*
Y28969D01*
X270386D01*
Y29008D01*
X270424Y29008D01*
Y29046D01*
X270386D01*
X270386Y29084D01*
X270424D01*
Y29123D01*
X270386D01*
Y29161D01*
X270424Y29161D01*
Y29200D01*
X270386D01*
Y29238D01*
X270424D01*
Y29276D01*
X270386D01*
X270386Y29315D01*
X270424D01*
Y29353D01*
X270386D01*
X270386Y29392D01*
X270424D01*
Y29430D01*
X270386D01*
Y29469D01*
X270424D01*
Y29507D01*
X270386Y29507D01*
Y29546D01*
X270424D01*
Y29584D01*
X270386D01*
Y29622D01*
X270424D01*
Y29661D01*
X270386D01*
X270386Y29699D01*
X270424D01*
Y29738D01*
X270386D01*
Y29776D01*
X270424D01*
Y29814D01*
X270386D01*
X270386Y29853D01*
X270347D01*
Y29814D01*
X270309Y29814D01*
X270270Y29814D01*
X270232D01*
Y29853D01*
X270194D01*
X270194Y29814D01*
X270117D01*
X270078Y29814D01*
Y29853D01*
X270040D01*
Y29814D01*
X270001Y29814D01*
X269963Y29814D01*
X269924D01*
Y29853D01*
X269886D01*
Y29814D01*
X269848D01*
Y29853D01*
X269809D01*
Y29814D01*
X269771Y29814D01*
Y29853D01*
X269732D01*
Y29814D01*
X269694D01*
X269694Y29853D01*
X269579D01*
Y29891D01*
X269540D01*
Y29930D01*
X269425D01*
Y29968D01*
X269387Y29968D01*
Y30007D01*
X269348D01*
X269348Y30045D01*
X269310D01*
Y30083D01*
X269271D01*
Y30122D01*
X269233D01*
Y30237D01*
X269195D01*
Y30352D01*
X269156D01*
Y30391D01*
X269195D01*
Y30429D01*
X269156D01*
X269156Y31082D01*
X269118Y31082D01*
Y31044D01*
X269079D01*
Y31082D01*
X269041D01*
X269041Y31044D01*
X269002D01*
Y31082D01*
X268964D01*
Y31044D01*
X268925Y31044D01*
Y31082D01*
X268887D01*
X268887Y31044D01*
X268849D01*
X268849Y31082D01*
X268810D01*
X268810Y31044D01*
X268772D01*
Y31082D01*
X268733D01*
Y31044D01*
X268695D01*
X268695Y31082D01*
X268657D01*
Y31044D01*
X268618Y31044D01*
Y31082D01*
X268580D01*
Y31044D01*
X268541Y31044D01*
Y31082D01*
X268503D01*
X268503Y31044D01*
X268464D01*
Y31082D01*
X268426D01*
Y31044D01*
X268388D01*
X268388Y31082D01*
X268349D01*
X268349Y31044D01*
X268311D01*
X268311Y31082D01*
X268272D01*
X268272Y31044D01*
X268234Y31044D01*
Y31082D01*
X268196D01*
X268196Y31044D01*
X268157D01*
Y31082D01*
X268119D01*
Y31044D01*
X268080D01*
X268080Y31082D01*
X268042D01*
Y31044D01*
X268003D01*
X268003Y31082D01*
X267965D01*
Y31044D01*
X267927Y31044D01*
Y31082D01*
X267888D01*
Y31044D01*
X267850D01*
X267850Y31082D01*
X267811D01*
Y31044D01*
X267773D01*
Y31082D01*
X267734Y31082D01*
Y31044D01*
X267696D01*
X267696Y31082D01*
X267658D01*
Y31044D01*
X267619D01*
Y31082D01*
X267581D01*
Y31044D01*
X267542D01*
X267542Y31082D01*
X267504D01*
X267504Y31044D01*
X267465D01*
X267465Y31082D01*
X267427D01*
Y31044D01*
X267389D01*
Y31082D01*
X267350D01*
X267350Y31044D01*
X267312D01*
Y31082D01*
X267273D01*
Y31044D01*
X267235D01*
Y31082D01*
X267196Y31082D01*
Y31044D01*
X267158Y31044D01*
X267158Y31082D01*
X267120D01*
Y31044D01*
X267081D01*
Y31082D01*
X267043D01*
X267043Y31044D01*
X267004D01*
Y31082D01*
X266966D01*
X266966Y31044D01*
X266928D01*
X266928Y31082D01*
X266812D01*
X266812Y31121D01*
X266774D01*
Y31159D01*
X266735Y31159D01*
Y31121D01*
X266697D01*
Y31159D01*
X266659Y31159D01*
Y31198D01*
X266620D01*
Y31236D01*
X266582D01*
Y31275D01*
X266543D01*
Y31390D01*
X266505D01*
Y31582D01*
X266466D01*
Y31620D01*
X266505D01*
X266505Y31736D01*
X266466D01*
Y31774D01*
X266505D01*
X266505Y31889D01*
X266466D01*
Y31928D01*
X266505D01*
Y32120D01*
X266543D01*
Y32235D01*
X266582D01*
Y32274D01*
X266620D01*
Y32312D01*
X266659D01*
X266659Y32350D01*
X266697D01*
X266735Y32350D01*
X266774Y32350D01*
Y32389D01*
X266812D01*
X266812Y32427D01*
X266851D01*
Y32389D01*
X266889D01*
Y32427D01*
X267004D01*
Y32389D01*
X267043D01*
X267043Y32427D01*
X267196D01*
X267235Y32427D01*
X267273Y32427D01*
X267312D01*
Y32389D01*
X267350D01*
X267350Y32427D01*
X267619D01*
Y32389D01*
X267658D01*
Y32427D01*
X267734D01*
X267773Y32427D01*
X267811Y32427D01*
X267927D01*
Y32389D01*
X267965D01*
Y32427D01*
X268042D01*
X268080Y32427D01*
X268119Y32427D01*
X268234D01*
Y32389D01*
X268272D01*
Y32427D01*
X268311D01*
X268349Y32427D01*
X268541D01*
Y32389D01*
X268580D01*
Y32427D01*
X268618D01*
X268657Y32427D01*
X268849D01*
Y32389D01*
X268887D01*
X268887Y32427D01*
X269079D01*
X269118Y32427D01*
X269156Y32427D01*
Y34041D01*
X269118Y34041D01*
X269079D01*
Y34079D01*
X269041D01*
X269041Y34041D01*
X269002D01*
Y34079D01*
X268964D01*
Y34041D01*
X268925Y34041D01*
Y34079D01*
X268887Y34079D01*
Y34041D01*
X268849D01*
X268849Y34079D01*
X268810Y34079D01*
Y34041D01*
X268772D01*
Y34079D01*
X268733D01*
Y34041D01*
X268695D01*
X268695Y34079D01*
X268657D01*
Y34041D01*
X268618Y34041D01*
Y34079D01*
X268580D01*
Y34041D01*
X268541Y34041D01*
X268503Y34041D01*
X268464D01*
Y34079D01*
X268426D01*
Y34041D01*
X268388D01*
Y34079D01*
X268349Y34079D01*
X268349Y34041D01*
X268311D01*
Y34079D01*
X268272D01*
Y34041D01*
X268234Y34041D01*
Y34079D01*
X268196D01*
X268196Y34041D01*
X268157D01*
Y34079D01*
X268119D01*
Y34041D01*
X268080D01*
Y34079D01*
X268042Y34079D01*
Y34041D01*
X268003D01*
Y34079D01*
X267965Y34079D01*
Y34041D01*
X267927Y34041D01*
X267888Y34041D01*
X267850D01*
X267850Y34079D01*
X267811D01*
Y34041D01*
X267773D01*
Y34079D01*
X267734Y34079D01*
Y34041D01*
X267696D01*
X267696Y34079D01*
X267658D01*
Y34041D01*
X267619D01*
Y34079D01*
X267581D01*
Y34041D01*
X267542D01*
Y34079D01*
X267504Y34079D01*
X267504Y34041D01*
X267465D01*
Y34079D01*
X267427Y34079D01*
Y34041D01*
X267389D01*
Y34079D01*
X267350D01*
X267350Y34041D01*
X267235D01*
Y34079D01*
X267196Y34079D01*
Y34041D01*
X267158Y34041D01*
X267158Y34079D01*
X267120D01*
Y34041D01*
X267081D01*
Y34079D01*
X267043Y34079D01*
Y34041D01*
X266928D01*
Y34079D01*
X266889Y34079D01*
Y34041D01*
X266851Y34041D01*
Y34079D01*
X266812D01*
X266812Y34041D01*
X266774D01*
Y34079D01*
X266735Y34079D01*
Y34118D01*
X266697D01*
X266697Y34156D01*
X266659D01*
X266659Y34195D01*
X266620D01*
X266620Y34233D01*
X266582Y34233D01*
Y34271D01*
X266543D01*
Y34387D01*
X266505Y34387D01*
Y34425D01*
X266543D01*
Y34464D01*
X266505D01*
X266505Y34502D01*
X266466D01*
Y34540D01*
X266505D01*
Y34656D01*
X266466D01*
Y34694D01*
X266505D01*
X266505Y34809D01*
X266466D01*
Y34848D01*
X266505D01*
Y35040D01*
X266543D01*
Y35078D01*
X266505D01*
X266505Y35117D01*
X266543D01*
Y35155D01*
X266582Y35155D01*
Y35194D01*
X266620D01*
Y35309D01*
X266735D01*
Y35347D01*
X266774D01*
Y35386D01*
X266812D01*
Y35347D01*
X266851D01*
Y35386D01*
X266889Y35386D01*
X266928Y35386D01*
X267158D01*
X267196Y35386D01*
X267235Y35386D01*
X267888D01*
X267927Y35386D01*
X267965Y35386D01*
X268196D01*
X268234Y35386D01*
X268272Y35386D01*
X268618D01*
X268657Y35386D01*
X268695Y35386D01*
X268925D01*
X268964Y35386D01*
X269002Y35386D01*
X269118D01*
X269156Y35386D01*
Y36999D01*
X269118D01*
Y37038D01*
X269002D01*
Y36999D01*
X268964D01*
Y37038D01*
X268925Y37038D01*
X268695D01*
Y36999D01*
X268657D01*
X268657Y37038D01*
X268388D01*
Y36999D01*
X268349D01*
X268349Y37038D01*
X268080D01*
Y36999D01*
X268042D01*
Y37038D01*
X267965D01*
X267927Y37038D01*
X267888Y37038D01*
X267773D01*
Y36999D01*
X267734D01*
Y37038D01*
X267465D01*
Y36999D01*
X267427D01*
Y37038D01*
X267158D01*
Y36999D01*
X267120D01*
Y37038D01*
X266851D01*
Y37076D01*
X266812D01*
X266812Y37038D01*
X266774D01*
Y37076D01*
X266735Y37076D01*
Y37115D01*
X266620D01*
Y37230D01*
X266582D01*
Y37268D01*
X266543Y37268D01*
Y37307D01*
X266505D01*
Y37345D01*
X266543D01*
Y37384D01*
X266505D01*
X266505Y37576D01*
X266466D01*
Y37614D01*
X266505Y37614D01*
Y37729D01*
X266466D01*
Y37768D01*
X266505D01*
Y37883D01*
X266466D01*
Y37922D01*
X266505Y37922D01*
Y37960D01*
X266543D01*
Y37998D01*
X266505D01*
X266505Y38037D01*
X266543D01*
Y38152D01*
X266582Y38152D01*
Y38190D01*
X266620Y38190D01*
Y38267D01*
X266697D01*
Y38306D01*
X266735Y38306D01*
Y38344D01*
X266774D01*
Y38383D01*
X266812D01*
Y38344D01*
X266851D01*
Y38383D01*
X266889D01*
X266889Y38344D01*
X266928D01*
Y38383D01*
X266966D01*
Y38344D01*
X267004D01*
Y38383D01*
X267043D01*
Y38344D01*
X267081D01*
Y38383D01*
X267120D01*
Y38344D01*
X267158D01*
Y38383D01*
X267196D01*
X267196Y38344D01*
X267235D01*
Y38383D01*
X267273D01*
Y38344D01*
X267312D01*
Y38383D01*
X267350D01*
Y38344D01*
X267389D01*
Y38383D01*
X267427D01*
Y38344D01*
X267465D01*
Y38383D01*
X267504D01*
X267504Y38344D01*
X267542D01*
Y38383D01*
X267581D01*
Y38344D01*
X267619D01*
Y38383D01*
X267658D01*
Y38344D01*
X267696D01*
Y38383D01*
X267734D01*
Y38344D01*
X267773D01*
Y38383D01*
X267811D01*
Y38344D01*
X267850D01*
Y38383D01*
X267888D01*
Y38344D01*
X267927D01*
Y38383D01*
X267965Y38383D01*
Y38344D01*
X268003D01*
Y38383D01*
X268042D01*
Y38344D01*
X268080D01*
Y38383D01*
X268119D01*
Y38344D01*
X268157D01*
Y38383D01*
X268196D01*
Y38344D01*
X268234D01*
X268234Y38383D01*
X268272D01*
Y38344D01*
X268311D01*
Y38383D01*
X268349D01*
X268349Y38344D01*
X268388D01*
Y38383D01*
X268426D01*
Y38344D01*
X268464D01*
Y38383D01*
X268503D01*
Y38344D01*
X268541D01*
X268541Y38383D01*
X268580D01*
Y38344D01*
X268618D01*
Y38383D01*
X268657D01*
X268657Y38344D01*
X268695D01*
Y38383D01*
X268733D01*
Y38344D01*
X268772D01*
Y38383D01*
X268810D01*
Y38344D01*
X268849D01*
X268849Y38383D01*
X268887D01*
Y38344D01*
X268925D01*
Y38383D01*
X268964D01*
X268964Y38344D01*
X269002D01*
Y38383D01*
X269041D01*
Y38344D01*
X269079D01*
Y38383D01*
X269118D01*
Y38344D01*
X269156D01*
Y39996D01*
X266889D01*
Y40035D01*
X266774D01*
Y40073D01*
X266735Y40073D01*
X266697Y40073D01*
X266659D01*
X266659Y40112D01*
X266620D01*
X266620Y40150D01*
X266582D01*
Y40189D01*
X266543D01*
Y40304D01*
X266505Y40304D01*
Y40496D01*
X266466Y40496D01*
Y40534D01*
X266505D01*
Y40650D01*
X266466D01*
Y40688D01*
X266505D01*
X266505Y40803D01*
X266466Y40803D01*
Y40842D01*
X266505Y40842D01*
Y41034D01*
X266543D01*
Y41149D01*
X266582D01*
Y41188D01*
X266620D01*
X266620Y41226D01*
X266659D01*
X266659Y41264D01*
X266697D01*
X266697Y41303D01*
X266735Y41303D01*
X266774Y41303D01*
Y41341D01*
X266851D01*
Y41380D01*
X266889D01*
Y41341D01*
X266928D01*
Y41380D01*
X266966D01*
Y41341D01*
X267004D01*
Y41380D01*
X267043D01*
Y41341D01*
X267081D01*
Y41380D01*
X267120D01*
Y41341D01*
X267158D01*
Y41380D01*
X267196D01*
Y41341D01*
X267235D01*
Y41380D01*
X267273D01*
Y41341D01*
X267312D01*
Y41380D01*
X267350D01*
Y41341D01*
X267389D01*
Y41380D01*
X267427D01*
Y41341D01*
X267465D01*
Y41380D01*
X267504D01*
Y41341D01*
X267542D01*
Y41380D01*
X267581D01*
Y41341D01*
X267619D01*
Y41380D01*
X267658D01*
Y41341D01*
X267696D01*
Y41380D01*
X267734D01*
Y41341D01*
X267773D01*
Y41380D01*
X267811D01*
Y41341D01*
X267850D01*
Y41380D01*
X267888D01*
Y41341D01*
X267927D01*
Y41380D01*
X267965D01*
Y41341D01*
X268003D01*
Y41380D01*
X268042D01*
Y41341D01*
X268080D01*
Y41380D01*
X268119D01*
Y41341D01*
X268157D01*
Y41380D01*
X268196D01*
Y41341D01*
X268234D01*
Y41380D01*
X268272D01*
Y41341D01*
X268311D01*
Y41380D01*
X268349D01*
Y41341D01*
X268388D01*
Y41380D01*
X268426D01*
Y41341D01*
X268464D01*
Y41380D01*
X268503D01*
Y41341D01*
X268541D01*
Y41380D01*
X268580D01*
Y41341D01*
X268618D01*
Y41380D01*
X268657D01*
Y41341D01*
X268695D01*
Y41380D01*
X268733D01*
Y41341D01*
X268772D01*
Y41380D01*
X268810D01*
Y41341D01*
X268849D01*
Y41380D01*
X268887D01*
Y41341D01*
X268925D01*
Y41380D01*
X268964D01*
Y41341D01*
X269002D01*
Y41380D01*
X269041D01*
Y41341D01*
X269079D01*
Y41380D01*
X269118D01*
Y41341D01*
X269156D01*
Y42993D01*
X269118Y42993D01*
Y42955D01*
X269079D01*
Y42993D01*
X269041D01*
Y42955D01*
X269002D01*
Y42993D01*
X268964Y42993D01*
Y42955D01*
X268925D01*
Y42993D01*
X268887D01*
Y42955D01*
X268849D01*
X268849Y42993D01*
X268810D01*
Y42955D01*
X268772D01*
Y42993D01*
X268733D01*
Y42955D01*
X268695D01*
Y42993D01*
X268657Y42993D01*
Y42955D01*
X268618D01*
Y42993D01*
X268580D01*
Y42955D01*
X268541D01*
Y42993D01*
X268503Y42993D01*
Y42955D01*
X268464D01*
Y42993D01*
X268426D01*
Y42955D01*
X268388D01*
Y42993D01*
X268349D01*
X268349Y42955D01*
X268311D01*
Y42993D01*
X268272D01*
Y42955D01*
X268234D01*
Y42993D01*
X268196Y42993D01*
Y42955D01*
X268157D01*
Y42993D01*
X268119D01*
Y42955D01*
X268080D01*
Y42993D01*
X268042D01*
Y42955D01*
X268003D01*
Y42993D01*
X267965D01*
Y42955D01*
X267927D01*
Y42993D01*
X267888Y42993D01*
Y42955D01*
X267850D01*
Y42993D01*
X267811D01*
Y42955D01*
X267773D01*
Y42993D01*
X267734D01*
Y42955D01*
X267696D01*
Y42993D01*
X267658D01*
Y42955D01*
X267619D01*
Y42993D01*
X267581D01*
Y42955D01*
X267542D01*
Y42993D01*
X267504D01*
X267504Y42955D01*
X267465D01*
Y42993D01*
X267427D01*
Y42955D01*
X267389D01*
Y42993D01*
X267350D01*
Y42955D01*
X267312D01*
Y42993D01*
X267273D01*
Y42955D01*
X267235D01*
Y42993D01*
X267196Y42993D01*
Y42955D01*
X267158D01*
Y42993D01*
X267120D01*
Y42955D01*
X267081D01*
Y42993D01*
X267043D01*
Y42955D01*
X267004D01*
Y42993D01*
X266966D01*
Y42955D01*
X266928D01*
Y42993D01*
X266889Y42993D01*
X266851Y42993D01*
X266812D01*
Y43032D01*
X266697D01*
Y43070D01*
X266659D01*
X266659Y43109D01*
X266620D01*
Y43147D01*
X266582Y43147D01*
Y43185D01*
X266543D01*
Y43301D01*
X266505D01*
Y43339D01*
X266543D01*
Y43378D01*
X266505D01*
X266505Y43416D01*
X266466D01*
Y43454D01*
X266505D01*
Y43570D01*
X266466D01*
Y43608D01*
X266505D01*
Y43723D01*
X266466D01*
Y43762D01*
X266505D01*
Y43877D01*
X266466D01*
Y43916D01*
X266505D01*
Y43954D01*
X266543D01*
Y43992D01*
X266505D01*
Y44031D01*
X266543D01*
Y44146D01*
X266582D01*
Y44184D01*
X266620Y44184D01*
Y44223D01*
X266659D01*
Y44261D01*
X266697D01*
X266697Y44300D01*
X266735D01*
Y44261D01*
X266774D01*
Y44300D01*
X266889D01*
Y44338D01*
X266928Y44338D01*
X267158D01*
X267196Y44338D01*
X267235Y44338D01*
X267888D01*
X267927Y44338D01*
X267965Y44338D01*
X268196D01*
X268234Y44338D01*
X268272Y44338D01*
X268311D01*
X268349Y44338D01*
X268388Y44338D01*
X268503D01*
X268541Y44338D01*
X268580Y44338D01*
X268618D01*
X268657Y44338D01*
X268695Y44338D01*
X268925D01*
X268964Y44338D01*
X269002Y44338D01*
X269118D01*
X269156Y44338D01*
Y50524D01*
X269195D01*
X269195Y50563D01*
X269156D01*
X269156Y50601D01*
X269195Y50601D01*
Y50639D01*
X269233D01*
Y50755D01*
X269271D01*
Y50793D01*
X269310D01*
Y50832D01*
X269348D01*
X269348Y50870D01*
X269387D01*
Y50908D01*
X269425D01*
Y50947D01*
X269463Y50947D01*
Y50985D01*
X269579D01*
Y51024D01*
X269617D01*
Y51062D01*
X269656D01*
Y51024D01*
X269694D01*
Y51062D01*
X269963D01*
Y51024D01*
X270001D01*
Y51062D01*
X270040D01*
Y51024D01*
D02*
G37*
%LPC*%
G36*
X269771Y45376D02*
X269732D01*
Y45337D01*
X269694D01*
Y45376D01*
X269579D01*
Y30660D01*
X269617D01*
Y30621D01*
X269579D01*
Y30583D01*
X269617D01*
Y30544D01*
X269656D01*
Y30468D01*
X269732D01*
Y30391D01*
X269771D01*
Y30352D01*
X269809D01*
Y30314D01*
X269886D01*
Y30275D01*
X270001D01*
Y30237D01*
X270117D01*
Y30199D01*
X270155D01*
Y30237D01*
X270270D01*
Y30199D01*
X270309D01*
Y30237D01*
X270347D01*
Y30199D01*
X270386D01*
Y30237D01*
X270424D01*
Y30199D01*
X270462D01*
Y30237D01*
X270578D01*
Y30199D01*
X270616D01*
Y30237D01*
X270655D01*
Y30199D01*
X270693D01*
Y30237D01*
X270731D01*
Y30199D01*
X270770D01*
Y30237D01*
X270885D01*
Y30199D01*
X270923D01*
Y30237D01*
X270962D01*
Y30199D01*
X271000D01*
Y30237D01*
X271039D01*
Y30199D01*
X271077D01*
Y30237D01*
X271193D01*
Y30199D01*
X271231D01*
Y30237D01*
X271269D01*
Y30199D01*
X271308D01*
Y30237D01*
X271346D01*
Y30199D01*
X271385D01*
Y30237D01*
X271500D01*
Y30199D01*
X271538D01*
Y30237D01*
X271577D01*
Y30199D01*
X271615D01*
Y30237D01*
X271654D01*
Y30199D01*
X271692D01*
Y30237D01*
X271807D01*
Y30199D01*
X271846D01*
Y30237D01*
X271884D01*
Y30199D01*
X271922D01*
Y30237D01*
X271961D01*
Y30199D01*
X271999D01*
Y30237D01*
X272115D01*
Y30199D01*
X272153D01*
Y30237D01*
X272192D01*
Y30199D01*
X272230D01*
Y30237D01*
X272268D01*
Y30199D01*
X272307D01*
Y30237D01*
X272422D01*
Y30199D01*
X272460D01*
Y30237D01*
X272499D01*
Y30199D01*
X272537D01*
Y30237D01*
X272576D01*
Y30199D01*
X272614D01*
Y30237D01*
X272729D01*
Y30199D01*
X272768D01*
Y30237D01*
X272806D01*
Y30199D01*
X272845D01*
Y30237D01*
X272883D01*
Y30199D01*
X272921D01*
Y30237D01*
X273037D01*
Y30199D01*
X273075D01*
Y30237D01*
X273114D01*
Y30199D01*
X273152D01*
Y30237D01*
X273190D01*
Y30199D01*
X273229D01*
Y30237D01*
X273344D01*
Y30199D01*
X273383D01*
Y30237D01*
X273421D01*
Y30199D01*
X273459D01*
Y30237D01*
X273498D01*
Y30199D01*
X273536D01*
Y30237D01*
X273652D01*
Y30199D01*
X273690D01*
Y30237D01*
X273728D01*
Y30199D01*
X273767D01*
Y30237D01*
X273805D01*
Y30199D01*
X273844D01*
Y30237D01*
X273959D01*
Y30199D01*
X273997D01*
Y30237D01*
X274036D01*
Y30199D01*
X274074D01*
Y30237D01*
X274113D01*
Y30199D01*
X274151D01*
Y30237D01*
X274266D01*
Y30199D01*
X274305D01*
Y30237D01*
X274343D01*
Y30199D01*
X274382D01*
Y30237D01*
X274420D01*
Y30199D01*
X274458D01*
Y30237D01*
X274574D01*
Y30199D01*
X274612D01*
Y30237D01*
X274651D01*
Y30199D01*
X274689D01*
Y30237D01*
X274727D01*
Y30199D01*
X274766D01*
Y30237D01*
X274881D01*
Y30199D01*
X274920D01*
Y30237D01*
X274958D01*
Y30199D01*
X274996D01*
Y30237D01*
X275035D01*
Y30199D01*
X275073D01*
Y30237D01*
X275188D01*
Y30199D01*
X275227D01*
Y30237D01*
X275265D01*
Y30199D01*
X275304D01*
Y30237D01*
X275342D01*
Y30199D01*
X275380D01*
Y30237D01*
X275496D01*
Y30199D01*
X275534D01*
Y30237D01*
X275573D01*
Y30199D01*
X275611D01*
Y30237D01*
X275649D01*
Y30199D01*
X275688D01*
Y30237D01*
X275803D01*
Y30199D01*
X275842D01*
Y30237D01*
X275880D01*
Y30199D01*
X275918D01*
Y30237D01*
X275957D01*
Y30199D01*
X275995D01*
Y30237D01*
X276111D01*
Y30199D01*
X276149D01*
Y30237D01*
X276187D01*
Y30199D01*
X276226D01*
Y30237D01*
X276264D01*
Y30199D01*
X276303D01*
Y30237D01*
X276418D01*
Y30199D01*
X276456D01*
Y30237D01*
X276495D01*
Y30199D01*
X276533D01*
Y30237D01*
X276572D01*
Y30199D01*
X276610D01*
Y30237D01*
X276725D01*
Y30199D01*
X276764D01*
Y30237D01*
X276802D01*
Y30199D01*
X276841D01*
Y30237D01*
X276879D01*
Y30199D01*
X276917D01*
Y30237D01*
X277033D01*
Y30199D01*
X277071D01*
Y30237D01*
X277110D01*
Y30199D01*
X277148D01*
Y30237D01*
X277186D01*
Y30199D01*
X277225D01*
Y30237D01*
X277340D01*
Y30199D01*
X277379D01*
Y30237D01*
X277417D01*
Y30199D01*
X277455D01*
Y30237D01*
X277494D01*
Y30199D01*
X277532D01*
Y30237D01*
X277647D01*
Y30199D01*
X277686D01*
Y30237D01*
X277724D01*
Y30199D01*
X277763D01*
Y30237D01*
X277801D01*
Y30199D01*
X277840D01*
Y30237D01*
X277955D01*
Y30199D01*
X277993D01*
Y30237D01*
X278032D01*
Y30199D01*
X278070D01*
Y30237D01*
X278109D01*
Y30199D01*
X278147D01*
Y30237D01*
X278262D01*
Y30199D01*
X278301D01*
Y30237D01*
X278339D01*
Y30199D01*
X278378D01*
Y30237D01*
X278416D01*
Y30199D01*
X278454D01*
Y30237D01*
X278570D01*
Y30199D01*
X278608D01*
Y30237D01*
X278646D01*
Y30199D01*
X278685D01*
Y30237D01*
X278723D01*
Y30199D01*
X278762D01*
Y30237D01*
X278877D01*
Y30199D01*
X278915D01*
Y30237D01*
X278954D01*
Y30199D01*
X278992D01*
Y30237D01*
X279031D01*
Y30199D01*
X279069D01*
Y30237D01*
X279184D01*
Y30199D01*
X279223D01*
Y30237D01*
X279261D01*
Y30199D01*
X279300D01*
Y30237D01*
X279338D01*
Y30199D01*
X279377D01*
Y30237D01*
X279492D01*
Y30199D01*
X279530D01*
Y30237D01*
X279569D01*
Y30199D01*
X279607D01*
Y30237D01*
X279645D01*
Y30199D01*
X279684D01*
Y30237D01*
X279799D01*
Y30199D01*
X279838D01*
Y30237D01*
X279876D01*
Y30199D01*
X279914D01*
Y30237D01*
X279953D01*
Y30199D01*
X279991D01*
Y30237D01*
X280106D01*
Y30199D01*
X280145D01*
Y30237D01*
X280183D01*
Y30199D01*
X280222D01*
Y30237D01*
X280260D01*
Y30199D01*
X280299D01*
Y30237D01*
X280414D01*
Y30199D01*
X280452D01*
Y30237D01*
X280491D01*
Y30199D01*
X280529D01*
Y30237D01*
X280568D01*
Y30199D01*
X280606D01*
Y30237D01*
X280721D01*
Y30199D01*
X280760D01*
Y30237D01*
X280798D01*
Y30199D01*
X280837D01*
Y30237D01*
X280875D01*
Y30199D01*
X280913D01*
Y30237D01*
X281029D01*
Y30199D01*
X281067D01*
Y30237D01*
X281105D01*
Y30199D01*
X281144D01*
Y30237D01*
X281182D01*
Y30199D01*
X281221D01*
Y30237D01*
X281336D01*
Y30199D01*
X281375D01*
Y30237D01*
X281413D01*
Y30199D01*
X281451D01*
Y30237D01*
X281490D01*
Y30199D01*
X281528D01*
Y30237D01*
X281643D01*
Y30199D01*
X281682D01*
Y30237D01*
X281720D01*
Y30199D01*
X281759D01*
Y30237D01*
X281797D01*
Y30199D01*
X281836D01*
Y30237D01*
X281951D01*
Y30199D01*
X281989D01*
Y30237D01*
X282028D01*
Y30199D01*
X282066D01*
Y30237D01*
X282104D01*
Y30199D01*
X282143D01*
Y30237D01*
X282258D01*
Y30199D01*
X282297D01*
Y30237D01*
X282335D01*
Y30199D01*
X282373D01*
Y30237D01*
X282412D01*
Y30199D01*
X282450D01*
Y30237D01*
X282566D01*
Y30199D01*
X282604D01*
Y30237D01*
X282642D01*
Y30199D01*
X282681D01*
Y30237D01*
X282719D01*
Y30199D01*
X282758D01*
Y30237D01*
X282873D01*
Y30199D01*
X282911D01*
Y30237D01*
X282950D01*
Y30199D01*
X282988D01*
Y30237D01*
X283027D01*
Y30199D01*
X283065D01*
Y30237D01*
X283180D01*
Y30199D01*
X283219D01*
Y30237D01*
X283257D01*
Y30199D01*
X283296D01*
Y30237D01*
X283334D01*
Y30199D01*
X283372D01*
Y30237D01*
X283488D01*
Y30199D01*
X283526D01*
Y30237D01*
X283565D01*
Y30199D01*
X283603D01*
Y30237D01*
X283641D01*
Y30199D01*
X283680D01*
Y30237D01*
X283795D01*
Y30199D01*
X283834D01*
Y30237D01*
X283872D01*
Y30199D01*
X283910D01*
Y30237D01*
X283949D01*
Y30199D01*
X283987D01*
Y30237D01*
X284103D01*
Y30199D01*
X284141D01*
Y30237D01*
X284179D01*
Y30199D01*
X284218D01*
Y30237D01*
X284256D01*
Y30199D01*
X284295D01*
Y30237D01*
X284410D01*
Y30199D01*
X284448D01*
Y30237D01*
X284487D01*
Y30199D01*
X284525D01*
Y30237D01*
X284563D01*
Y30199D01*
X284602D01*
Y30237D01*
X284717D01*
Y30275D01*
X284679D01*
Y30468D01*
X284640D01*
Y30506D01*
X284602D01*
Y30544D01*
X284640D01*
Y30583D01*
X284602D01*
Y30698D01*
X284563D01*
Y30737D01*
X284602D01*
Y30775D01*
X284563D01*
Y30813D01*
X284525D01*
Y30852D01*
X284563D01*
Y30890D01*
X284525D01*
Y31005D01*
X284487D01*
Y31044D01*
X284448D01*
Y31082D01*
X284487D01*
Y31121D01*
X284448D01*
Y31236D01*
X284410D01*
Y31275D01*
X284448D01*
Y31313D01*
X284410D01*
Y31351D01*
X284371D01*
Y31467D01*
X284333D01*
Y31582D01*
X284295D01*
Y31697D01*
X284256D01*
Y31736D01*
X284295D01*
Y31774D01*
X284256D01*
Y31812D01*
X284218D01*
Y31928D01*
X284179D01*
Y32043D01*
X284141D01*
Y32158D01*
X284103D01*
Y32197D01*
X284064D01*
Y32235D01*
X284103D01*
Y32274D01*
X284064D01*
Y32350D01*
X284026D01*
Y32427D01*
X283987D01*
Y32542D01*
X283949D01*
Y32581D01*
X283910D01*
Y32619D01*
X283949D01*
Y32658D01*
X283910D01*
Y32773D01*
X283872D01*
Y32811D01*
X283834D01*
Y32927D01*
X283795D01*
Y33042D01*
X283757D01*
Y33080D01*
X283718D01*
Y33196D01*
X283680D01*
Y33311D01*
X283641D01*
Y33349D01*
X283603D01*
Y33465D01*
X283565D01*
Y33503D01*
X283526D01*
Y33618D01*
X283488D01*
Y33657D01*
X283449D01*
Y33695D01*
X283488D01*
Y33733D01*
X283449D01*
Y33772D01*
X283411D01*
Y33810D01*
X283449D01*
Y33849D01*
X283411D01*
Y33887D01*
X283372D01*
Y34003D01*
X283334D01*
Y34041D01*
X283296D01*
Y34079D01*
X283257D01*
Y34118D01*
X283296D01*
Y34156D01*
X283257D01*
Y34195D01*
X283219D01*
Y34310D01*
X283180D01*
Y34348D01*
X283142D01*
Y34387D01*
X283103D01*
Y34425D01*
X283142D01*
Y34464D01*
X283103D01*
Y34502D01*
X283065D01*
Y34617D01*
X283027D01*
Y34656D01*
X282988D01*
Y34694D01*
X282950D01*
Y34732D01*
X282988D01*
Y34771D01*
X282950D01*
Y34809D01*
X282911D01*
Y34886D01*
X282873D01*
Y34963D01*
X282835D01*
Y35002D01*
X282796D01*
Y35040D01*
X282758D01*
Y35078D01*
X282796D01*
Y35117D01*
X282758D01*
Y35155D01*
X282719D01*
Y35194D01*
X282681D01*
Y35309D01*
X282642D01*
Y35347D01*
X282604D01*
Y35462D01*
X282566D01*
Y35501D01*
X282527D01*
Y35539D01*
X282489D01*
Y35578D01*
X282450D01*
Y35693D01*
X282412D01*
Y35732D01*
X282373D01*
Y35847D01*
X282335D01*
Y35885D01*
X282297D01*
Y35924D01*
X282258D01*
Y35962D01*
X282220D01*
Y36077D01*
X282181D01*
Y36116D01*
X282143D01*
Y36231D01*
X282104D01*
Y36269D01*
X282066D01*
Y36308D01*
X282028D01*
Y36346D01*
X281989D01*
Y36461D01*
X281951D01*
Y36500D01*
X281912D01*
Y36538D01*
X281874D01*
Y36577D01*
X281836D01*
Y36692D01*
X281797D01*
Y36731D01*
X281759D01*
Y36769D01*
X281720D01*
Y36807D01*
X281682D01*
Y36923D01*
X281643D01*
Y36961D01*
X281605D01*
Y36999D01*
X281567D01*
Y37038D01*
X281528D01*
Y37153D01*
X281490D01*
Y37192D01*
X281451D01*
Y37230D01*
X281413D01*
Y37268D01*
X281375D01*
Y37307D01*
X281336D01*
Y37345D01*
X281298D01*
Y37461D01*
X281259D01*
Y37499D01*
X281221D01*
Y37537D01*
X281182D01*
Y37576D01*
X281144D01*
Y37614D01*
X281105D01*
Y37653D01*
X281067D01*
Y37768D01*
X281029D01*
Y37806D01*
X280990D01*
Y37845D01*
X280952D01*
Y37883D01*
X280913D01*
Y37922D01*
X280875D01*
Y37960D01*
X280837D01*
Y38037D01*
X280760D01*
Y38152D01*
X280721D01*
Y38190D01*
X280683D01*
Y38229D01*
X280644D01*
Y38267D01*
X280606D01*
Y38306D01*
X280568D01*
Y38344D01*
X280529D01*
Y38460D01*
X280452D01*
Y38536D01*
X280414D01*
Y38575D01*
X280376D01*
Y38613D01*
X280337D01*
Y38652D01*
X280299D01*
Y38690D01*
X280260D01*
Y38728D01*
X280222D01*
Y38767D01*
X280183D01*
Y38805D01*
X280145D01*
Y38844D01*
X280106D01*
Y38882D01*
X280068D01*
Y38959D01*
X279991D01*
Y39074D01*
X279914D01*
Y39151D01*
X279838D01*
Y39228D01*
X279799D01*
Y39266D01*
X279761D01*
Y39305D01*
X279722D01*
Y39343D01*
X279684D01*
Y39382D01*
X279645D01*
Y39420D01*
X279607D01*
Y39459D01*
X279569D01*
Y39497D01*
X279530D01*
Y39535D01*
X279492D01*
Y39574D01*
X279453D01*
Y39612D01*
X279415D01*
Y39651D01*
X279377D01*
Y39689D01*
X279338D01*
Y39727D01*
X279300D01*
Y39766D01*
X279261D01*
Y39804D01*
X279223D01*
Y39843D01*
X279184D01*
Y39881D01*
X279146D01*
Y39919D01*
X279107D01*
Y39958D01*
X279069D01*
Y39996D01*
X279031D01*
Y40035D01*
X278992D01*
Y40073D01*
X278954D01*
Y40112D01*
X278915D01*
Y40150D01*
X278877D01*
Y40189D01*
X278839D01*
Y40227D01*
X278800D01*
Y40265D01*
X278762D01*
Y40304D01*
X278723D01*
Y40342D01*
X278685D01*
Y40381D01*
X278646D01*
Y40419D01*
X278608D01*
Y40457D01*
X278570D01*
Y40496D01*
X278531D01*
Y40534D01*
X278454D01*
Y40611D01*
X278378D01*
Y40650D01*
X278301D01*
Y40726D01*
X278224D01*
Y40765D01*
X278185D01*
Y40803D01*
X278147D01*
Y40842D01*
X278109D01*
Y40880D01*
X278070D01*
Y40918D01*
X278032D01*
Y40957D01*
X277993D01*
Y40995D01*
X277955D01*
Y41034D01*
X277916D01*
Y41072D01*
X277878D01*
Y41111D01*
X277840D01*
Y41149D01*
X277763D01*
Y41188D01*
X277686D01*
Y41226D01*
X277647D01*
Y41264D01*
X277609D01*
Y41303D01*
X277571D01*
Y41341D01*
X277532D01*
Y41380D01*
X277494D01*
Y41418D01*
X277455D01*
Y41456D01*
X277379D01*
Y41495D01*
X277302D01*
Y41572D01*
X277225D01*
Y41610D01*
X277186D01*
Y41649D01*
X277148D01*
Y41687D01*
X277110D01*
Y41725D01*
X277071D01*
Y41764D01*
X276994D01*
Y41802D01*
X276917D01*
Y41841D01*
X276879D01*
Y41879D01*
X276841D01*
Y41917D01*
X276802D01*
Y41956D01*
X276764D01*
Y41994D01*
X276725D01*
Y41956D01*
X276687D01*
Y42033D01*
X276610D01*
Y42071D01*
X276572D01*
Y42110D01*
X276533D01*
Y42148D01*
X276456D01*
Y42225D01*
X276418D01*
Y42186D01*
X276379D01*
Y42225D01*
X276341D01*
Y42263D01*
X276303D01*
Y42302D01*
X276264D01*
Y42340D01*
X276226D01*
Y42379D01*
X276187D01*
Y42340D01*
X276149D01*
Y42417D01*
X276072D01*
Y42455D01*
X276034D01*
Y42494D01*
X275995D01*
Y42532D01*
X275918D01*
Y42571D01*
X275842D01*
Y42609D01*
X275803D01*
Y42648D01*
X275765D01*
Y42686D01*
X275726D01*
Y42648D01*
X275688D01*
Y42724D01*
X275611D01*
Y42763D01*
X275573D01*
Y42801D01*
X275534D01*
Y42840D01*
X275419D01*
Y42878D01*
X275380D01*
Y42917D01*
X275342D01*
Y42955D01*
X275227D01*
Y42993D01*
X275188D01*
Y43032D01*
X275150D01*
Y43070D01*
X275035D01*
Y43109D01*
X274996D01*
Y43147D01*
X274920D01*
Y43185D01*
X274843D01*
Y43224D01*
X274804D01*
Y43262D01*
X274766D01*
Y43301D01*
X274651D01*
Y43339D01*
X274612D01*
Y43378D01*
X274535D01*
Y43416D01*
X274458D01*
Y43454D01*
X274420D01*
Y43493D01*
X274305D01*
Y43531D01*
X274266D01*
Y43570D01*
X274151D01*
Y43608D01*
X274113D01*
Y43647D01*
X274074D01*
Y43685D01*
X274036D01*
Y43647D01*
X273997D01*
Y43685D01*
X273959D01*
Y43723D01*
X273844D01*
Y43762D01*
X273805D01*
Y43800D01*
X273767D01*
Y43839D01*
X273728D01*
Y43800D01*
X273690D01*
Y43839D01*
X273652D01*
Y43877D01*
X273613D01*
Y43916D01*
X273575D01*
Y43877D01*
X273536D01*
Y43916D01*
X273498D01*
Y43954D01*
X273459D01*
Y43992D01*
X273421D01*
Y43954D01*
X273383D01*
Y43992D01*
X273344D01*
Y44031D01*
X273229D01*
Y44069D01*
X273190D01*
Y44108D01*
X273075D01*
Y44146D01*
X272998D01*
Y44184D01*
X272921D01*
Y44223D01*
X272806D01*
Y44261D01*
X272768D01*
Y44300D01*
X272653D01*
Y44338D01*
X272614D01*
Y44377D01*
X272576D01*
Y44338D01*
X272537D01*
Y44377D01*
X272499D01*
Y44415D01*
X272384D01*
Y44453D01*
X272268D01*
Y44492D01*
X272230D01*
Y44530D01*
X272192D01*
Y44492D01*
X272153D01*
Y44530D01*
X272115D01*
Y44569D01*
X272076D01*
Y44607D01*
X272038D01*
Y44569D01*
X271999D01*
Y44607D01*
X271922D01*
Y44646D01*
X271846D01*
Y44684D01*
X271730D01*
Y44722D01*
X271615D01*
Y44761D01*
X271500D01*
Y44799D01*
X271461D01*
Y44838D01*
X271423D01*
Y44799D01*
X271385D01*
Y44838D01*
X271346D01*
Y44876D01*
X271231D01*
Y44914D01*
X271193D01*
Y44876D01*
X271154D01*
Y44914D01*
X271116D01*
Y44953D01*
X271000D01*
Y44991D01*
X270962D01*
Y44953D01*
X270923D01*
Y44991D01*
X270885D01*
Y45030D01*
X270770D01*
Y45068D01*
X270731D01*
Y45030D01*
X270693D01*
Y45068D01*
X270655D01*
Y45107D01*
X270539D01*
Y45145D01*
X270501D01*
Y45107D01*
X270462D01*
Y45145D01*
X270424D01*
Y45183D01*
X270386D01*
Y45145D01*
X270347D01*
Y45183D01*
X270309D01*
Y45222D01*
X270270D01*
Y45183D01*
X270232D01*
Y45222D01*
X270117D01*
Y45260D01*
X270001D01*
Y45299D01*
X269886D01*
Y45337D01*
X269771D01*
Y45376D01*
D02*
G37*
%LPD*%
G36*
X271961Y33503D02*
X271999Y33503D01*
X272115D01*
Y33465D01*
X272192D01*
Y33426D01*
X272230D01*
Y33465D01*
X272268D01*
Y33426D01*
X272307D01*
Y33388D01*
X272345D01*
Y33349D01*
X272384D01*
Y33388D01*
X272422D01*
Y33349D01*
X272460D01*
X272460Y33311D01*
X272499D01*
Y33272D01*
X272537D01*
Y33234D01*
X272576D01*
X272576Y33196D01*
X272614D01*
Y33157D01*
X272653D01*
Y33119D01*
X272691D01*
Y33080D01*
X272729D01*
X272729Y32965D01*
X272768D01*
Y32927D01*
X272806D01*
Y32735D01*
X272845D01*
Y32619D01*
X272883D01*
Y32581D01*
X272845D01*
Y32542D01*
X272883D01*
Y32504D01*
X272845D01*
Y32466D01*
X272883D01*
Y32427D01*
X272845D01*
Y32312D01*
X272806D01*
Y32197D01*
X272768D01*
Y32081D01*
X272729D01*
Y32043D01*
X272691Y32043D01*
Y32004D01*
X272653D01*
Y31889D01*
X272614D01*
Y31851D01*
X272576D01*
X272576Y31812D01*
X272537D01*
Y31774D01*
X272499D01*
Y31736D01*
X272460D01*
Y31774D01*
X272422D01*
Y31697D01*
X272345D01*
Y31659D01*
X272268D01*
Y31620D01*
X272192D01*
Y31582D01*
X272153D01*
Y31620D01*
X272115D01*
Y31582D01*
X271999D01*
Y31543D01*
X271961Y31543D01*
X271922D01*
X271884Y31543D01*
X271846Y31543D01*
X271807Y31543D01*
X271730D01*
X271730Y31582D01*
X271538D01*
Y31620D01*
X271500D01*
X271500Y31659D01*
X271385D01*
Y31697D01*
X271346D01*
Y31736D01*
X271231D01*
Y31812D01*
X271154D01*
Y31851D01*
X271116Y31851D01*
Y31889D01*
X271077D01*
X271077Y32004D01*
X271039D01*
Y32043D01*
X271000D01*
Y32081D01*
X270962D01*
Y32120D01*
X271000D01*
Y32158D01*
X270962D01*
Y32197D01*
X270923D01*
Y32312D01*
X270885D01*
X270885Y32350D01*
X270923D01*
Y32389D01*
X270885D01*
Y32504D01*
X270923D01*
Y32542D01*
X270885Y32542D01*
X270885Y32658D01*
X270923D01*
Y32696D01*
X270885D01*
X270885Y32735D01*
X270923D01*
Y32850D01*
X270962D01*
Y32965D01*
X271000D01*
Y33004D01*
X271039D01*
X271039Y33042D01*
X271000D01*
Y33080D01*
X271039D01*
Y33119D01*
X271077D01*
X271077Y33157D01*
X271116D01*
Y33196D01*
X271154D01*
Y33234D01*
X271193D01*
X271193Y33272D01*
X271231D01*
Y33311D01*
X271269D01*
Y33349D01*
X271308D01*
Y33388D01*
X271346D01*
Y33349D01*
X271385D01*
Y33388D01*
X271423D01*
Y33426D01*
X271461D01*
Y33465D01*
X271500D01*
X271500Y33426D01*
X271538D01*
Y33465D01*
X271577D01*
X271577Y33503D01*
X271615D01*
Y33465D01*
X271654D01*
Y33503D01*
X271692Y33503D01*
X271769D01*
Y33541D01*
X271807D01*
Y33503D01*
X271846Y33503D01*
Y33541D01*
X271884D01*
X271884Y33503D01*
X271922Y33503D01*
Y33541D01*
X271961D01*
Y33503D01*
D02*
G37*
D10*
X28500Y76000D02*
D03*
X39130D02*
D03*
X6370D02*
D03*
X17000D02*
D03*
X112130Y117500D02*
D03*
X101500Y117500D02*
D03*
X43370Y169500D02*
D03*
X54000D02*
D03*
X62870Y23500D02*
D03*
X73500D02*
D03*
X139500D02*
D03*
X128870D02*
D03*
X39130Y87500D02*
D03*
X28500D02*
D03*
X6370D02*
D03*
X17000D02*
D03*
X151500Y173500D02*
D03*
X140870D02*
D03*
X131500D02*
D03*
X120870D02*
D03*
X154630Y44500D02*
D03*
X144000D02*
D03*
X74870Y35500D02*
D03*
X85500D02*
D03*
Y78500D02*
D03*
X74870D02*
D03*
D11*
X96098Y88346D02*
D03*
X96098Y110000D02*
D03*
X83500D02*
D03*
Y88346D02*
D03*
D12*
X85500Y69697D02*
D03*
Y44500D02*
D03*
X75657Y69697D02*
D03*
Y44500D02*
D03*
D13*
X6583Y31504D02*
D03*
Y66543D02*
D03*
X28039Y31504D02*
D03*
Y66543D02*
D03*
D14*
X28532Y42724D02*
D03*
Y45874D02*
D03*
Y49024D02*
D03*
Y52173D02*
D03*
Y55323D02*
D03*
D15*
X148976Y163303D02*
D03*
X131024D02*
D03*
D16*
X140000Y138500D02*
D03*
D17*
X112500Y76957D02*
D03*
X114469D02*
D03*
X116437D02*
D03*
X118405D02*
D03*
X120374D02*
D03*
X122343D02*
D03*
X124311D02*
D03*
X126279D02*
D03*
X128248D02*
D03*
X130217D02*
D03*
X132185D02*
D03*
X134153D02*
D03*
Y45067D02*
D03*
X132185D02*
D03*
X130217D02*
D03*
X128248D02*
D03*
X126279D02*
D03*
X124311D02*
D03*
X122343D02*
D03*
X120374D02*
D03*
X118405D02*
D03*
X116437D02*
D03*
X114469D02*
D03*
X112500D02*
D03*
D18*
X139272Y71839D02*
D03*
Y69870D02*
D03*
Y67902D02*
D03*
Y65933D02*
D03*
Y63965D02*
D03*
Y61996D02*
D03*
Y60028D02*
D03*
Y58059D02*
D03*
Y56090D02*
D03*
Y54122D02*
D03*
Y52153D02*
D03*
Y50185D02*
D03*
X107382D02*
D03*
Y52153D02*
D03*
Y54122D02*
D03*
Y56090D02*
D03*
Y58059D02*
D03*
Y60028D02*
D03*
Y61996D02*
D03*
Y63965D02*
D03*
Y65933D02*
D03*
Y67902D02*
D03*
Y69870D02*
D03*
Y71839D02*
D03*
D19*
X54047Y43591D02*
D03*
D20*
X48142Y53138D02*
D03*
X50110D02*
D03*
X52079D02*
D03*
X54047D02*
D03*
X56016D02*
D03*
X57984D02*
D03*
X59953D02*
D03*
X57984Y34043D02*
D03*
X56016D02*
D03*
X54047D02*
D03*
X52079D02*
D03*
X50110D02*
D03*
X48142D02*
D03*
D21*
X63595Y49496D02*
D03*
Y47528D02*
D03*
Y45559D02*
D03*
Y43591D02*
D03*
Y41622D02*
D03*
Y39654D02*
D03*
X44500Y37685D02*
D03*
Y39654D02*
D03*
Y41622D02*
D03*
Y43591D02*
D03*
Y45559D02*
D03*
Y47528D02*
D03*
Y49496D02*
D03*
D22*
X63595Y37685D02*
D03*
D23*
X59953Y34043D02*
D03*
D24*
X83500Y11500D02*
D03*
X53972D02*
D03*
X123472D02*
D03*
X153000D02*
D03*
D25*
X58000Y72500D02*
D03*
Y83130D02*
D03*
X107000Y24870D02*
D03*
Y35500D02*
D03*
X38500Y57000D02*
D03*
Y67630D02*
D03*
X158500Y163130D02*
D03*
Y152500D02*
D03*
X64000Y159370D02*
D03*
Y170000D02*
D03*
X148000Y85130D02*
D03*
Y74500D02*
D03*
X97000Y49000D02*
D03*
Y38370D02*
D03*
X111500Y97500D02*
D03*
Y86870D02*
D03*
X115000Y25000D02*
D03*
Y35630D02*
D03*
X75500Y104130D02*
D03*
Y93500D02*
D03*
X104500Y103630D02*
D03*
Y93000D02*
D03*
D26*
X61260Y98752D02*
D03*
X57520Y89500D02*
D03*
D27*
X65000Y89500D02*
D03*
D28*
X94051Y140000D02*
D03*
X94051Y135000D02*
D03*
X94051Y130000D02*
D03*
Y125000D02*
D03*
X112949Y140000D02*
D03*
Y135000D02*
D03*
Y130000D02*
D03*
Y125000D02*
D03*
D29*
X165626Y157874D02*
X169500Y154000D01*
X154331Y157874D02*
X165626D01*
X152756Y156299D02*
X154331Y157874D01*
X139130Y85130D02*
X148000D01*
X56000Y160000D02*
X63370D01*
X206000Y20567D02*
Y62000D01*
X202933Y17500D02*
X206000Y20567D01*
X169500Y17500D02*
X202933D01*
X111500Y87000D02*
X112500Y86000D01*
X102976Y4724D02*
X107000Y8748D01*
X45276Y4724D02*
X102976D01*
X123472Y10500D02*
X128870Y15898D01*
X127870Y163303D02*
X131024D01*
X126000Y161433D02*
X127870Y163303D01*
X126000Y140000D02*
Y161433D01*
X150047Y177953D02*
X151500Y176500D01*
X131500Y177953D02*
X150047D01*
X131500Y173500D02*
Y177953D01*
X151575Y170472D02*
Y171425D01*
X149606Y168504D02*
X151575Y170472D01*
X149606Y163933D02*
Y168504D01*
X148976Y163303D02*
X149606Y163933D01*
X120000Y125000D02*
X125197Y119803D01*
Y113386D02*
Y119803D01*
X138500Y91500D02*
Y92500D01*
X171000Y47000D02*
Y48291D01*
X169291Y50000D02*
X171000Y48291D01*
X165091Y50000D02*
X169291D01*
X159000Y56090D02*
X165091Y50000D01*
X170500Y36000D02*
Y38949D01*
X165169Y44280D02*
X170500Y38949D01*
X165169Y44280D02*
Y45831D01*
X154630Y38488D02*
Y44500D01*
X149713Y3213D02*
X153000Y6500D01*
X41500Y8500D02*
X45276Y4724D01*
X112535Y3213D02*
X149713D01*
X107000Y8748D02*
Y24870D01*
Y8748D02*
X112535Y3213D01*
X209449Y58949D02*
X224803Y74303D01*
X209449Y40551D02*
Y58949D01*
Y40551D02*
X216488Y33512D01*
X219000Y127000D02*
X224803Y121197D01*
Y74303D02*
Y121197D01*
X222000Y137000D02*
X228740Y130260D01*
Y71740D02*
Y130260D01*
X213500Y56500D02*
X228740Y71740D01*
X225488Y147012D02*
X232677Y139823D01*
Y67177D02*
Y139823D01*
X219000Y53500D02*
X232677Y67177D01*
X158000Y90500D02*
X164500Y97000D01*
X158000Y72500D02*
Y90500D01*
X174409Y29528D02*
X182000Y37118D01*
X156972Y29528D02*
X174409D01*
X155000Y31500D02*
X156972Y29528D01*
X182000Y37118D02*
Y101500D01*
X35500Y74004D02*
X37134D01*
X28039Y66543D02*
X35500Y74004D01*
X79000Y161500D02*
X104807D01*
X116807Y173500D01*
X120870D01*
X182000Y161000D02*
X184130Y163130D01*
X186000Y165000D01*
X158500Y163130D02*
X184130D01*
X143201Y156299D02*
X152756D01*
X136197Y163303D02*
X143201Y156299D01*
X147638Y-7874D02*
Y0D01*
Y181102D02*
Y188976D01*
X-7874Y90551D02*
X0D01*
X295276D02*
X303150D01*
X0Y74803D02*
Y181102D01*
X295276D01*
Y0D02*
Y181102D01*
X0Y0D02*
X295276D01*
X0D02*
Y23622D01*
X78000Y161500D02*
X79000D01*
X78000Y120500D02*
Y161500D01*
X75000Y117500D02*
X78000Y120500D01*
X24500Y59685D02*
X33185D01*
X36000Y62500D01*
X43000D01*
X44000Y61500D01*
Y54000D02*
Y61500D01*
X39500Y49500D02*
X44000Y54000D01*
X39500Y45000D02*
Y49500D01*
X36823Y55323D02*
X38500Y57000D01*
X28532Y55323D02*
X36823D01*
X35512Y43988D02*
Y52173D01*
X70500Y35500D02*
X74870D01*
X68000Y33000D02*
X70500Y35500D01*
X68000Y17500D02*
Y33000D01*
X62000Y11500D02*
X68000Y17500D01*
X53972Y11500D02*
X62000D01*
X212000Y151500D02*
X218000Y157500D01*
X212000Y124000D02*
Y151500D01*
Y124000D02*
X215500Y120500D01*
X218500D01*
X221500Y117500D01*
Y107500D02*
Y117500D01*
X216000Y102000D02*
X221500Y107500D01*
X216000Y90000D02*
Y102000D01*
X215500Y113500D02*
X216500D01*
X210500Y108500D02*
X215500Y113500D01*
X206000Y62000D02*
X216000Y72000D01*
Y90000D01*
X213500Y49012D02*
Y56500D01*
Y49012D02*
X219000Y43512D01*
X189000Y108500D02*
X210500D01*
X182000Y101500D02*
X189000Y108500D01*
X53154Y12319D02*
X53972Y11500D01*
X97000Y45500D02*
Y49000D01*
Y45500D02*
X98500Y44000D01*
X100500D01*
X102000Y42500D01*
Y32000D02*
Y42500D01*
Y32000D02*
X103500Y30500D01*
X113000D01*
X115000Y28500D01*
Y25000D02*
Y28500D01*
X139500Y13468D02*
Y23500D01*
X132000Y5968D02*
X139500Y13468D01*
X116532Y5968D02*
X132000D01*
X115000Y7500D02*
X116532Y5968D01*
X115000Y7500D02*
Y25000D01*
X153000Y6500D02*
Y11500D01*
X100130Y24870D02*
X107000D01*
X97000Y28000D02*
X100130Y24870D01*
X97000Y28000D02*
Y38370D01*
X164500Y97000D02*
Y97500D01*
X23161Y49024D02*
X28532D01*
Y52173D02*
X35512D01*
X6583Y31504D02*
Y66543D01*
X28039Y31504D02*
Y42232D01*
X6583Y31504D02*
X28039D01*
X6583Y66543D02*
X28039D01*
X81500Y78500D02*
X85500D01*
X80500Y79500D02*
X81500Y78500D01*
X80500Y79500D02*
Y81500D01*
X79000Y83000D02*
X80500Y81500D01*
X76000Y83000D02*
X79000D01*
X104500Y103630D02*
X111870D01*
X186000Y165000D02*
X210500D01*
X182000Y154000D02*
Y161000D01*
X210500Y165000D02*
X218000Y157500D01*
X239500Y90500D02*
X259000D01*
X70500Y170000D02*
X79000Y161500D01*
X64000Y170000D02*
X70500D01*
X148000Y85130D02*
X152370D01*
X153500Y84000D01*
Y71000D02*
Y84000D01*
X85500Y35500D02*
Y44500D01*
X83500Y21000D02*
X86000Y23500D01*
X83500Y11500D02*
Y21000D01*
X128870Y15898D02*
Y23500D01*
X97000Y49000D02*
Y54000D01*
X125555Y58059D02*
X127000Y59504D01*
Y68500D01*
X128370Y69870D01*
X127000Y50500D02*
Y59504D01*
X114469Y72035D02*
X127000Y59504D01*
X107382Y74382D02*
X109957Y76957D01*
X107130Y35630D02*
X115000D01*
X107000Y35500D02*
X107130Y35630D01*
X73500Y23500D02*
X86000D01*
X91000Y28500D01*
X75657Y63842D02*
Y69697D01*
Y63842D02*
X77000Y62500D01*
X75657Y69697D02*
Y77713D01*
X90000Y84000D02*
X93500Y80500D01*
X90000Y84000D02*
Y86500D01*
X88153Y88346D02*
X90000Y86500D01*
X83500Y88346D02*
X88153D01*
X75500Y104130D02*
X104000D01*
X104500Y89500D02*
Y93000D01*
X103347Y88346D02*
X104500Y89500D01*
X96098Y88346D02*
X103347D01*
X77153Y88346D02*
X83500D01*
X75500Y90000D02*
X77153Y88346D01*
X75500Y90000D02*
Y93500D01*
X131500Y50500D02*
X132185Y49815D01*
X127000Y50500D02*
X131500D01*
X126279Y49779D02*
X127000Y50500D01*
X122000Y29500D02*
X122343Y29842D01*
X216488Y33512D02*
X219000D01*
Y137000D02*
X222000D01*
X219000Y147012D02*
X225488D01*
X164500Y146500D02*
X174500D01*
X182000Y154000D01*
X112949Y125000D02*
X120000D01*
X94051D02*
X99500D01*
X101500Y123000D01*
Y117500D02*
Y123000D01*
X108500Y117500D02*
X112130D01*
X106000Y120000D02*
X108500Y117500D01*
X106000Y120000D02*
Y127500D01*
X108500Y130000D01*
X112949D01*
X83000D02*
X94051D01*
X91000Y135000D02*
X94051D01*
X84500Y141500D02*
X91000Y135000D01*
X148976Y163303D02*
X158327D01*
X158500Y163130D01*
X112949Y135000D02*
X121000D01*
X112949Y140000D02*
X119000D01*
X121000Y135000D02*
X126000Y140000D01*
X121000Y142000D02*
Y143500D01*
X119000Y140000D02*
X121000Y142000D01*
X120000Y151500D02*
X125500D01*
X54000Y169500D02*
X56000D01*
X39370Y161417D02*
X43370Y165417D01*
Y169500D01*
X56000D02*
X60500Y165000D01*
X69000D01*
X72500Y161500D01*
Y139000D02*
Y161500D01*
X169500Y152500D02*
Y154000D01*
X158500Y147500D02*
Y152500D01*
X149500Y138500D02*
X158500Y147500D01*
X140000Y138500D02*
X149500D01*
X145000Y123500D02*
X151500Y117000D01*
X145000Y123500D02*
Y133500D01*
X140000Y138500D02*
X145000Y133500D01*
X38500Y67630D02*
X45370D01*
X45000Y25000D02*
X48142Y28142D01*
X17000Y87500D02*
X28500D01*
X17000Y76000D02*
X28500D01*
X6370Y87500D02*
X11370Y92500D01*
X47500D01*
X6370Y76000D02*
X6500D01*
X12000Y81500D01*
X47000D01*
X39130Y76000D02*
X45000D01*
X48500Y72500D01*
X39130Y87500D02*
X49500D01*
X53250Y83750D01*
Y72500D02*
Y83750D01*
X48500Y72500D02*
X53250D01*
X58000D01*
X57520Y83610D02*
Y89500D01*
X75000Y115500D02*
Y117500D01*
X70000Y110500D02*
X75000Y115500D01*
X59000Y94500D02*
X64500D01*
X57520Y93020D02*
X59000Y94500D01*
X57520Y89500D02*
Y93020D01*
X55248Y98752D02*
X61260D01*
X53000Y101000D02*
X55248Y98752D01*
X140870Y165370D02*
Y173500D01*
X138803Y163303D02*
X140870Y165370D01*
X131024Y163303D02*
X136197D01*
X138803D01*
X120870Y163370D02*
Y173500D01*
X120500Y163000D02*
X120870Y163370D01*
X151500Y173500D02*
Y176500D01*
X35512Y43988D02*
X37878Y41622D01*
X37500Y23000D02*
Y37000D01*
Y23000D02*
X41500Y19000D01*
X51500D01*
X56000Y23500D01*
X62870D01*
X41500Y8500D02*
Y19000D01*
X65000Y33000D02*
X68000D01*
X37134Y74004D02*
X39130Y76000D01*
X111870Y97630D02*
Y103630D01*
X45370Y67630D02*
X45571Y67831D01*
X55000Y57500D02*
X62500D01*
X64500Y59500D01*
X54047Y43591D02*
X54409D01*
X139500Y23500D02*
X145500Y17500D01*
X169500D01*
X128870Y23500D02*
X132500D01*
X134500Y25500D01*
Y28000D01*
X111870Y97630D02*
X115130D01*
X119500Y102000D01*
Y104000D01*
X151500Y105500D02*
Y107500D01*
X130000Y88000D02*
Y90000D01*
X139130Y85130D02*
X140000Y86000D01*
X140500D01*
X147500Y75000D02*
X148000Y74500D01*
X147500Y75000D02*
Y77500D01*
X147000Y78000D02*
X147500Y77500D01*
X140500Y78000D02*
X147000D01*
X170000Y73929D02*
Y89000D01*
X164000Y72500D02*
Y77500D01*
X28039Y22961D02*
X35500Y15500D01*
X28039Y22961D02*
Y31504D01*
X109500Y114870D02*
X112130Y117500D01*
X109500Y110500D02*
Y114870D01*
Y106520D02*
X112130Y103890D01*
X109500Y106520D02*
Y110500D01*
X125000Y87000D02*
Y95000D01*
X158846Y52153D02*
X165169Y45831D01*
X70000Y103000D02*
Y110500D01*
X66500Y99500D02*
X70000Y103000D01*
X66500Y96500D02*
Y99500D01*
X64500Y94500D02*
X66500Y96500D01*
X70000Y89000D02*
X76000Y83000D01*
X70000Y89000D02*
Y97500D01*
X75500Y103000D01*
Y104130D01*
X96098Y72402D02*
Y88346D01*
X93500Y71000D02*
Y80500D01*
X85500Y44500D02*
Y52500D01*
X91000Y28500D02*
Y52500D01*
X92500Y54000D01*
X102000Y47500D02*
X107000Y42500D01*
Y35500D02*
Y42500D01*
X77000Y62500D02*
X91000D01*
X92465Y63965D01*
X53315Y63000D02*
X57500D01*
X45571Y67831D02*
X62331D01*
X65000Y70500D01*
Y89500D01*
X156815Y50185D02*
X161500Y45500D01*
Y39500D02*
Y45500D01*
X147000Y73500D02*
X148000Y74500D01*
X144500Y73500D02*
X147000D01*
X128000Y98000D02*
X129000D01*
X125000Y95000D02*
X128000Y98000D01*
X138500Y92500D02*
X151500Y105500D01*
X111500Y87000D02*
X118161Y93661D01*
Y95161D01*
X140000Y117000D01*
X151500D01*
X134500Y28000D02*
X152000D01*
X157500Y22500D01*
X139000Y39000D02*
Y39500D01*
X144000Y44500D01*
X136500Y31500D02*
X155000D01*
D30*
X54409Y43591D02*
X65000Y33000D01*
X134331Y87331D02*
X138500Y91500D01*
X150504Y34362D02*
X154630Y38488D01*
X136638Y34362D02*
X150504D01*
X158000Y70598D02*
Y72500D01*
X155303Y67902D02*
X158000Y70598D01*
X139272Y67902D02*
X155303D01*
X39500Y45000D02*
X40909Y43591D01*
X44500D01*
X37878Y41622D02*
X44500D01*
X139272Y56090D02*
X159000D01*
X139272Y63965D02*
X160035D01*
X139272Y65933D02*
X157433D01*
X21347Y50839D02*
X23161Y49024D01*
X21347Y56532D02*
X24500Y59685D01*
X21347Y50839D02*
Y56532D01*
X152370Y69870D02*
X153500Y71000D01*
X139272Y69870D02*
X152370D01*
X97000Y54000D02*
X101059Y58059D01*
X107382D02*
X125555D01*
X128370Y69870D02*
X139272D01*
X114469Y72035D02*
Y76957D01*
X112500Y76957D02*
Y86000D01*
X109957Y76957D02*
X112500D01*
X107382Y71839D02*
Y74382D01*
X102000Y55500D02*
X102591Y56090D01*
X107382D01*
X98567Y65933D02*
X107382D01*
X93500Y71000D02*
X98567Y65933D01*
X100598Y67902D02*
X107382D01*
X96098Y72402D02*
X100598Y67902D01*
X134153Y45067D02*
X143433D01*
X126279D02*
Y49779D01*
X122343Y29842D02*
Y45067D01*
X48142Y28142D02*
Y34043D01*
X40154Y39654D02*
X44500D01*
X37500Y37000D02*
X40154Y39654D01*
X52079Y53138D02*
Y61764D01*
X54047Y53138D02*
Y56547D01*
X55000Y57500D01*
X120374Y76957D02*
Y83126D01*
X122343Y76957D02*
Y84342D01*
X125000Y87000D01*
X124311Y76957D02*
Y82311D01*
X130000Y88000D01*
X118000Y85500D02*
X120374Y83126D01*
X160035Y63965D02*
X170000Y73929D01*
X157433Y65933D02*
X164000Y72500D01*
X139272Y61996D02*
X163996D01*
X44500Y45559D02*
X52079D01*
X101059Y58059D02*
X107382D01*
X94996Y61996D02*
X107382D01*
X85500Y52500D02*
X94996Y61996D01*
X102000Y47500D02*
Y55500D01*
X92500Y54000D02*
Y55000D01*
X97528Y60028D01*
X107382D01*
X92465Y63965D02*
X107382D01*
X52079Y61764D02*
X53315Y63000D01*
X132185Y45067D02*
Y49815D01*
X130217Y37784D02*
Y45067D01*
X163996Y61996D02*
X169000Y67000D01*
X139272Y60028D02*
X162472D01*
X165500Y57000D01*
X139272Y50185D02*
X156815D01*
X139272Y52153D02*
X155443D01*
X155836Y52547D01*
X158453D02*
X158846Y52153D01*
X155836Y52547D02*
X158453D01*
X142839Y71839D02*
X144500Y73500D01*
X139272Y71839D02*
X142839D01*
X134331Y77134D02*
Y87331D01*
X128248Y32000D02*
Y45067D01*
X132185Y38815D02*
Y45067D01*
Y38815D02*
X136638Y34362D01*
X130217Y37784D02*
X136500Y31500D01*
X285631Y114959D02*
X284648Y113975D01*
Y112007D01*
X285631Y111024D01*
X289567D01*
X290551Y112007D01*
Y113975D01*
X289567Y114959D01*
X290551Y117911D02*
Y119879D01*
X289567Y120863D01*
X287599D01*
X286615Y119879D01*
Y117911D01*
X287599Y116927D01*
X289567D01*
X290551Y117911D01*
Y122831D02*
Y124799D01*
Y123815D01*
X284648D01*
Y122831D01*
X290551Y127751D02*
Y129718D01*
Y128734D01*
X284648D01*
Y127751D01*
X290551Y135622D02*
Y133654D01*
X289567Y132670D01*
X287599D01*
X286615Y133654D01*
Y135622D01*
X287599Y136606D01*
X288583D01*
Y132670D01*
X286615Y142509D02*
Y139558D01*
X287599Y138574D01*
X289567D01*
X290551Y139558D01*
Y142509D01*
X285631Y145461D02*
X286615D01*
Y144477D01*
Y146445D01*
Y145461D01*
X289567D01*
X290551Y146445D01*
Y150381D02*
Y152349D01*
X289567Y153333D01*
X287599D01*
X286615Y152349D01*
Y150381D01*
X287599Y149397D01*
X289567D01*
X290551Y150381D01*
X286615Y155301D02*
X290551D01*
X288583D01*
X287599Y156285D01*
X286615Y157269D01*
Y158252D01*
X275592Y111024D02*
X281496D01*
Y113975D01*
X280512Y114959D01*
X276576D01*
X275592Y113975D01*
Y111024D01*
X277560Y117911D02*
Y119879D01*
X278544Y120863D01*
X281496D01*
Y117911D01*
X280512Y116927D01*
X279528Y117911D01*
Y120863D01*
X276576Y123815D02*
X277560D01*
Y122831D01*
Y124799D01*
Y123815D01*
X280512D01*
X281496Y124799D01*
X277560Y128734D02*
Y130702D01*
X278544Y131686D01*
X281496D01*
Y128734D01*
X280512Y127751D01*
X279528Y128734D01*
Y131686D01*
X267128Y114959D02*
X266144Y113975D01*
Y112007D01*
X267128Y111024D01*
X271063D01*
X272047Y112007D01*
Y113975D01*
X271063Y114959D01*
X268111Y116927D02*
X271063D01*
X272047Y117911D01*
Y120863D01*
X268111D01*
Y122831D02*
X272047D01*
X270079D01*
X269095Y123815D01*
X268111Y124799D01*
Y125783D01*
Y128734D02*
X272047D01*
X270079D01*
X269095Y129718D01*
X268111Y130702D01*
Y131686D01*
X272047Y137590D02*
Y135622D01*
X271063Y134638D01*
X269095D01*
X268111Y135622D01*
Y137590D01*
X269095Y138574D01*
X270079D01*
Y134638D01*
X272047Y140542D02*
X268111D01*
Y143493D01*
X269095Y144477D01*
X272047D01*
X267128Y147429D02*
X268111D01*
Y146445D01*
Y148413D01*
Y147429D01*
X271063D01*
X272047Y148413D01*
X284985Y57851D02*
X283985Y56852D01*
Y54852D01*
X284985Y53853D01*
X285984D01*
X286984Y54852D01*
Y56852D01*
X287984Y57851D01*
X288983D01*
X289983Y56852D01*
Y54852D01*
X288983Y53853D01*
X285984Y59851D02*
X288983D01*
X289983Y60851D01*
Y63850D01*
X290983D01*
X291983Y62850D01*
Y61850D01*
X289983Y63850D02*
X285984D01*
X289983Y65849D02*
Y68848D01*
X288983Y69848D01*
X287984Y68848D01*
Y66849D01*
X286984Y65849D01*
X285984Y66849D01*
Y69848D01*
X284985Y72847D02*
X285984D01*
Y71847D01*
Y73846D01*
Y72847D01*
X288983D01*
X289983Y73846D01*
Y79844D02*
Y77845D01*
X288983Y76845D01*
X286984D01*
X285984Y77845D01*
Y79844D01*
X286984Y80844D01*
X287984D01*
Y76845D01*
X289983Y82844D02*
X285984D01*
Y83843D01*
X286984Y84843D01*
X289983D01*
X286984D01*
X285984Y85843D01*
X286984Y86842D01*
X289983D01*
Y88841D02*
Y91840D01*
X288983Y92840D01*
X287984Y91840D01*
Y89841D01*
X286984Y88841D01*
X285984Y89841D01*
Y92840D01*
X275485Y54353D02*
X281483D01*
Y57352D01*
X280484Y58351D01*
X276485D01*
X275485Y57352D01*
Y54353D01*
X277484Y60351D02*
X281483D01*
X279484D01*
X278484Y61351D01*
X277484Y62350D01*
Y63350D01*
X281483Y66349D02*
Y68348D01*
Y67349D01*
X277484D01*
Y66349D01*
Y71347D02*
X281483Y73347D01*
X277484Y75346D01*
X281483Y80344D02*
Y78345D01*
X280484Y77345D01*
X278484D01*
X277484Y78345D01*
Y80344D01*
X278484Y81344D01*
X279484D01*
Y77345D01*
X281483Y83343D02*
X277484D01*
Y86343D01*
X278484Y87342D01*
X281483D01*
X268063Y58289D02*
X267080Y57305D01*
Y55337D01*
X268063Y54353D01*
X269047D01*
X270031Y55337D01*
Y57305D01*
X271015Y58289D01*
X271999D01*
X272983Y57305D01*
Y55337D01*
X271999Y54353D01*
X272983Y61240D02*
Y63208D01*
X271999Y64192D01*
X270031D01*
X269047Y63208D01*
Y61240D01*
X270031Y60256D01*
X271999D01*
X272983Y61240D01*
Y66160D02*
Y68128D01*
Y67144D01*
X267080D01*
Y66160D01*
X269047Y72064D02*
Y74032D01*
X270031Y75015D01*
X272983D01*
Y72064D01*
X271999Y71080D01*
X271015Y72064D01*
Y75015D01*
X269047Y76983D02*
X272983D01*
X271015D01*
X270031Y77967D01*
X269047Y78951D01*
Y79935D01*
D31*
X275590Y169291D02*
D03*
Y11811D02*
D03*
X19685D02*
D03*
Y169291D02*
D03*
D32*
X198827Y23512D02*
D03*
X188827D02*
D03*
X198827Y33512D02*
D03*
X188827D02*
D03*
X198827Y43512D02*
D03*
X188827D02*
D03*
X198827Y53512D02*
D03*
X188827D02*
D03*
X198827Y63512D02*
D03*
X188827D02*
D03*
X199327Y117012D02*
D03*
X189327D02*
D03*
X199327Y127012D02*
D03*
X189327D02*
D03*
X199327Y137012D02*
D03*
X189327D02*
D03*
X199327Y147012D02*
D03*
X189327D02*
D03*
X199327Y157012D02*
D03*
X189327D02*
D03*
X247827Y23512D02*
D03*
X237827D02*
D03*
X247827Y33512D02*
D03*
X237827D02*
D03*
X247827Y43512D02*
D03*
X237827D02*
D03*
X247827Y53512D02*
D03*
X237827D02*
D03*
X247827Y63512D02*
D03*
X237827D02*
D03*
X248327Y117012D02*
D03*
X238327D02*
D03*
X248327Y127012D02*
D03*
X238327D02*
D03*
X248327Y137012D02*
D03*
X238327D02*
D03*
X248327Y147012D02*
D03*
X238327D02*
D03*
X248327Y157012D02*
D03*
X238327D02*
D03*
X62500Y149000D02*
D03*
Y139000D02*
D03*
Y129000D02*
D03*
Y119000D02*
D03*
Y109000D02*
D03*
X164500Y108000D02*
D03*
Y118000D02*
D03*
Y128000D02*
D03*
Y138000D02*
D03*
D33*
X36500Y144000D02*
D03*
X46500Y139000D02*
D03*
X36500Y134000D02*
D03*
X46500Y129000D02*
D03*
X36500Y124000D02*
D03*
X46500Y119000D02*
D03*
X36500Y114000D02*
D03*
X46500Y109000D02*
D03*
D34*
X11500Y149000D02*
D03*
Y104000D02*
D03*
D35*
X82000Y170000D02*
D03*
X92000D02*
D03*
X102000D02*
D03*
X125197Y113386D02*
D03*
X39370Y161417D02*
D03*
X216500Y113500D02*
D03*
X216000Y90000D02*
D03*
X169000Y66000D02*
D03*
X161500Y39500D02*
D03*
X164500Y97000D02*
D03*
X151500Y107500D02*
D03*
X169500Y152500D02*
D03*
X219000Y157500D02*
D03*
X259000Y90500D02*
D03*
X239500D02*
D03*
X75000Y117500D02*
D03*
X56000Y161417D02*
D03*
X151500Y117000D02*
D03*
X72500Y139000D02*
D03*
X129000Y32000D02*
D03*
X122000Y29500D02*
D03*
X219000Y33512D02*
D03*
Y43512D02*
D03*
Y53500D02*
D03*
Y127000D02*
D03*
Y137000D02*
D03*
Y147012D02*
D03*
X164500Y146500D02*
D03*
X83000Y130000D02*
D03*
X84500Y141500D02*
D03*
X121000Y143500D02*
D03*
X120000Y151500D02*
D03*
X45370Y67630D02*
D03*
X45000Y25000D02*
D03*
X47000Y81500D02*
D03*
X47500Y92500D02*
D03*
X64500Y59500D02*
D03*
X53000Y101000D02*
D03*
X120500Y163000D02*
D03*
X68000Y33000D02*
D03*
X119500Y104000D02*
D03*
X157500Y22500D02*
D03*
X130000Y90000D02*
D03*
X140500Y86000D02*
D03*
X118000Y85500D02*
D03*
X97000Y28000D02*
D03*
X140500Y78000D02*
D03*
X170000Y89000D02*
D03*
X164000Y77500D02*
D03*
X165500Y57000D02*
D03*
X170500Y36000D02*
D03*
X169500Y17500D02*
D03*
X35500Y15500D02*
D03*
X109500Y110500D02*
D03*
X57500Y63000D02*
D03*
X171000Y47000D02*
D03*
X129000Y98000D02*
D03*
X139000Y39000D02*
D03*
D36*
X58378Y39260D02*
D03*
X54047D02*
D03*
X49716D02*
D03*
X58378Y43591D02*
D03*
X49716D02*
D03*
X58378Y47921D02*
D03*
X49716D02*
D03*
X54047Y43591D02*
D03*
Y47921D02*
D03*
M02*
